<?xml version="1.0" encoding="utf-8"?>
<!-- Generator: Adobe Illustrator 24.1.0, SVG Export Plug-In . SVG Version: 6.00 Build 0)  -->
<svg version="1.1" id="Vrstva_1" xmlns="http://www.w3.org/2000/svg" xmlns:xlink="http://www.w3.org/1999/xlink" x="0px" y="0px"
	 viewBox="0 0 35.4 35.5" style="enable-background:new 0 0 35.4 35.5;" xml:space="preserve">
<style type="text/css">
	.st0{display:none;fill:#FFFFFF;}
	.st1{fill:#FFFFFF;}
	.st2{fill:#0F0F0F;}
	.st3{fill:#DD0000;stroke:#0F0F0F;stroke-width:0.2;stroke-miterlimit:10;}
</style>
<path class="st0" d="M0-0.3c11.9,0,23.8,0,35.7,0c0,11.9,0,23.8,0,35.7c-11.9,0-23.8,0-35.7,0C0,23.5,0,11.6,0-0.3z M34.6,19.9
	c-0.1-0.1-0.1-0.1-0.1-0.1c-0.1-0.2-0.3-0.3-0.4-0.4C34,19.2,34,19.2,34,19.1c0,0,0,0,0-0.1c0-0.9,0-1.8,0-2.7c0,0,0-0.1,0-0.1
	s0-0.1,0-0.1c0,0,0.1-0.1,0.1-0.1c0.2-0.2,0.3-0.3,0.4-0.4c0.1-0.1,0.1-0.1,0.1-0.2c-0.1-0.6-0.2-1.2-0.3-1.8
	c-0.4-1.5-0.9-3-1.7-4.3c-0.9-1.5-1.9-2.9-3.2-4.1c-0.7-0.7-1.5-1.3-2.4-1.9c-1.3-0.8-2.7-1.5-4.1-1.9c-0.8-0.3-1.6-0.4-2.5-0.6
	c-0.1,0-0.3,0-0.4-0.1c-0.1,0-0.1,0-0.1,0.1c0,0,0,0,0,0c-0.1,0.1-0.3,0.3-0.4,0.4c0,0.1-0.1,0.1-0.2,0.1c0,0-0.1,0-0.1,0
	c-0.6,0-1.3,0-1.9,0c-0.3,0-0.6,0-0.9,0c-0.1,0-0.1,0-0.2-0.1c-0.1-0.1-0.3-0.3-0.4-0.4c-0.1-0.1-0.1-0.1-0.3-0.1c0,0,0,0,0,0
	c-0.4,0.1-0.8,0.1-1.2,0.2c-1.6,0.3-3.1,0.9-4.5,1.6C8.1,3.4,6.5,4.6,5.2,6C4.4,6.9,3.7,7.8,3.1,8.8c-0.7,1.2-1.3,2.4-1.7,3.7
	c-0.3,0.9-0.5,1.8-0.6,2.7c0,0.1-0.1,0.2,0,0.3C0.9,15.7,1,15.8,1.2,16c0.1,0.1,0.1,0.2,0.1,0.3c0,0,0,0.1,0,0.1c0,0.9,0,1.9,0,2.8
	c0,0,0,0.1,0,0.1c0,0.1,0,0.2-0.1,0.2c-0.1,0.1-0.3,0.2-0.4,0.4c-0.1,0.1-0.1,0.1-0.1,0.2c0.1,0.6,0.2,1.2,0.4,1.8
	c0.3,1.3,0.8,2.6,1.5,3.8c0.9,1.7,2.1,3.2,3.5,4.6c0.8,0.7,1.6,1.3,2.4,1.9c1.3,0.8,2.7,1.5,4.1,1.9c1.1,0.3,2.2,0.6,3.3,0.7
	c0.5,0.1,0.9,0.1,1.4,0.1c0.3,0,0.6,0,1,0c0.6,0,1.2-0.1,1.7-0.2c0.6-0.1,1.2-0.2,1.8-0.3c1.3-0.3,2.6-0.8,3.8-1.5
	c1.6-0.8,3.1-1.9,4.3-3.2c0.5-0.6,1.1-1.2,1.5-1.8c0.9-1.2,1.6-2.5,2.1-3.8c0.4-0.9,0.6-1.8,0.8-2.8C34.5,20.8,34.6,20.3,34.6,19.9z
	"/>
<path class="st1" d="M35.1,19.4c0,0-0.1-0.1-0.2-0.2c-0.1-0.1-0.1-0.1-0.2-0.2v-2.5l0.4-0.3c0.2-0.2,0.3-0.5,0.3-0.8
	c-0.1-0.6-0.2-1.2-0.4-1.9c-0.4-1.5-1-3-1.8-4.5c-0.9-1.6-2-3-3.3-4.3c-0.8-0.7-1.6-1.4-2.6-2c-1.4-0.9-2.8-1.5-4.3-2
	c-0.8-0.3-1.7-0.5-2.5-0.6c-0.1,0-0.2,0-0.3-0.1l-0.2,0h-0.1c-0.3,0-0.5,0.1-0.7,0.4C19.1,0.4,19,0.5,19,0.6h-2.5
	c-0.1-0.1-0.1-0.1-0.2-0.2C16.1,0.2,15.9,0,15.5,0l-0.3,0l-0.1,0c-0.4,0.1-0.8,0.1-1.1,0.2c-1.6,0.3-3.2,0.9-4.6,1.6
	C7.6,2.8,6,4,4.6,5.5C3.8,6.4,3.1,7.4,2.4,8.5C1.7,9.7,1.1,11,0.7,12.3c-0.3,0.8-0.5,1.7-0.6,2.9c0,0.1,0,0.2,0,0.4l0,0.3L0.2,16
	c0.1,0.1,0.2,0.2,0.3,0.3l0.1,0.1V19c0,0,0,0-0.1,0.1c-0.1,0-0.1,0.1-0.2,0.2C0.1,19.4,0,19.7,0,20.1c0.1,0.6,0.2,1.2,0.4,1.9
	c0.4,1.4,0.8,2.7,1.5,4c0.9,1.8,2.2,3.4,3.6,4.8c0.9,0.8,1.7,1.4,2.5,2c1.4,0.9,2.8,1.5,4.3,2c1.2,0.4,2.3,0.6,3.4,0.7
	c0.5,0.1,1,0.1,1.5,0.1c0,0,0.7,0,1,0c0.5,0,1.1-0.1,1.8-0.2c0.7-0.1,1.3-0.2,1.8-0.3c1.4-0.3,2.7-0.9,4-1.5c1.7-0.9,3.2-2,4.5-3.4
	c0.6-0.6,1.1-1.3,1.6-1.9c0.9-1.2,1.6-2.6,2.2-4c0.4-1,0.7-1.9,0.9-2.9c0.1-0.5,0.2-0.9,0.2-1.4l0-0.4L35.1,19.4z"/>
<path class="st2" d="M34.6,19.9c-0.1,0.5-0.1,0.9-0.2,1.3c-0.2,0.9-0.5,1.9-0.8,2.8c-0.5,1.4-1.3,2.6-2.1,3.8
	c-0.5,0.6-1,1.2-1.5,1.8c-1.3,1.3-2.7,2.4-4.3,3.2c-1.2,0.6-2.5,1.1-3.8,1.5c-0.6,0.2-1.2,0.3-1.8,0.3c-0.6,0.1-1.2,0.1-1.7,0.2
	c-0.3,0-0.6,0-1,0c-0.5,0-0.9,0-1.4-0.1c-1.1-0.1-2.2-0.4-3.3-0.7c-1.5-0.5-2.8-1.1-4.1-1.9c-0.9-0.5-1.7-1.2-2.4-1.9
	c-1.4-1.3-2.6-2.9-3.5-4.6c-0.6-1.2-1.1-2.5-1.5-3.8c-0.2-0.6-0.3-1.2-0.4-1.8c0-0.1,0-0.1,0.1-0.2c0.1-0.1,0.3-0.2,0.4-0.4
	c0.1-0.1,0.1-0.1,0.1-0.2c0,0,0-0.1,0-0.1c0-0.9,0-1.9,0-2.8c0,0,0-0.1,0-0.1c0-0.1,0-0.2-0.1-0.3c-0.2-0.2-0.3-0.3-0.4-0.5
	c0-0.1,0-0.2,0-0.3c0.1-0.9,0.3-1.8,0.6-2.7c0.4-1.3,1-2.5,1.7-3.7c0.6-1,1.3-2,2.1-2.8C6.5,4.6,8,3.4,9.7,2.5
	c1.4-0.7,2.9-1.3,4.5-1.6c0.4-0.1,0.8-0.2,1.2-0.2c0,0,0,0,0,0c0.2,0,0.1,0,0.3,0.1c0.1,0.1,0.3,0.3,0.4,0.4
	c0.1,0.1,0.1,0.1,0.2,0.1c0.3,0,0.6,0,0.9,0c0.6,0,1.3,0,1.9,0c0,0,0.1,0,0.1,0c0.1,0,0.1,0,0.2-0.1c0.1-0.2,0.3-0.3,0.4-0.4
	c0,0,0,0,0,0c0-0.1,0.1-0.1,0.1-0.1c0.1,0,0.3,0,0.4,0.1c0.8,0.1,1.7,0.3,2.5,0.6c1.5,0.5,2.8,1.1,4.1,1.9c0.9,0.6,1.7,1.2,2.4,1.9
	c1.3,1.2,2.4,2.6,3.2,4.1c0.8,1.4,1.3,2.8,1.7,4.3c0.2,0.6,0.3,1.2,0.3,1.8c0,0.1,0,0.1-0.1,0.2c-0.2,0.2-0.3,0.3-0.4,0.4
	c0,0-0.1,0.1-0.1,0.1c0,0,0,0.1,0,0.1c0,0,0,0.1,0,0.1c0,0.9,0,1.8,0,2.7c0,0,0,0,0,0.1c0,0.1,0,0.2,0.1,0.2
	c0.1,0.1,0.3,0.3,0.4,0.4C34.6,19.8,34.6,19.8,34.6,19.9z M2.9,17.8c0,8,6.4,14.6,14.5,14.8c4.1,0,7.6-1.3,10.6-4.2
	c3-2.9,4.5-6.7,4.5-10.4c0.1-4.1-1.4-7.6-4.2-10.6C25.4,4.5,21.6,3.1,18,3C13.7,3,10,4.7,7.4,7.2C4.5,10,2.9,13.9,2.9,17.8z"/>
<path class="st0" d="M2.9,17.8c0-3.9,1.6-7.8,4.5-10.6C10,4.7,13.7,3,18,3c3.7,0.1,7.5,1.5,10.3,4.5c2.8,2.9,4.2,6.5,4.2,10.6
	c0,3.7-1.5,7.5-4.5,10.4c-2.9,2.8-6.5,4.2-10.6,4.2C9.4,32.4,2.9,25.8,2.9,17.8z M19.1,22.3c0.1,0.1,1.3,0.8,1.6,1c0,0,0,0,0.1,0
	c0,0,0-0.1,0-0.1c0.7-5.8,1.4-11.6,2.1-17.3c0,0,0,0,0,0c-0.1,0-0.1,0-0.2,0c-1,0-1.9,0-2.9,0c0,0-0.1,0-0.1,0c0,0-0.1,0-0.1,0
	c0,0.1,0,0.2,0,0.3c0,0.4,0,0.9-0.1,1.3c0,0.2,0,0.4,0,0.5c0,0.4,0,0.9-0.1,1.3c0,0.3,0,0.5,0,0.8c0,0.4,0,0.7,0,1.1
	c0,0.3,0,0.7,0,1c0,0,0,0.1,0,0.1c-0.1,0-0.1,0-0.2,0c-1,0-1.9,0-2.9,0c0,0-0.1,0-0.1,0c0,0-0.1,0-0.1,0c0-0.1,0-0.1,0-0.2
	c0-0.1,0-0.2,0-0.3c0-0.4,0-0.9-0.1-1.3c0-0.2,0-0.4,0-0.5c0-0.4,0-0.9-0.1-1.3c0-0.3,0-0.5,0-0.8c0-0.4,0-0.7,0-1.1
	c0-0.3,0-0.5,0-0.7c0-0.1,0-0.1,0-0.2c-0.1,0-0.1,0-0.2,0c-1,0-1.9,0-2.9,0c0,0-0.1,0-0.1,0c-0.1,0-0.1,0-0.1,0.1
	c0,0.3,0.1,0.6,0.1,1c0.1,0.4,0.1,0.7,0.1,1.1C13,8.1,13,8.4,13,8.6c0.1,0.4,0.1,0.7,0.1,1.1s0.1,0.7,0.1,1.1c0,0.4,0.1,0.7,0.1,1.1
	c0,0.4,0.1,0.7,0.1,1.1c0.1,0.4,0.1,0.7,0.1,1.1c0,0.4,0.1,0.7,0.1,1.1c0.1,0.4,0.1,0.7,0.1,1.1c0,0.4,0.1,0.7,0.1,1.1
	c0.1,0.4,0.1,0.7,0.1,1.1c0,0.3,0.1,0.5,0.1,0.8c0.1,0.4,0.1,0.7,0.1,1.1s0.1,0.7,0.1,1.1c0.1,0.4,0.1,0.7,0.1,1.1
	c0,0.3,0.1,0.5,0.1,0.8c0,0,0,0.1,0,0.1c0.1,0,0.1-0.1,0.1-0.1c0.1-0.1,0.2-0.1,0.3-0.2c0.4-0.2,0.8-0.4,1.1-0.7
	c0.1,0,0.1-0.1,0.1-0.2c0-0.5-0.1-1.1-0.1-1.6c0-0.5,0-1-0.1-1.5c0-0.5,0-1-0.1-1.5c0-0.6-0.1-1.2-0.1-1.8c0-0.5,0-1-0.1-1.5
	c0-0.1,0-0.2,0-0.2c0.1,0,0.1,0,0.2,0c0.5,0,1.1,0,1.6,0c0.4,0,0.8,0,1.3,0c0.1,0,0.1,0,0.2,0c0,0,0,0.1,0,0.1c0,0.3,0,0.6,0,0.9
	c0,0.5,0,1-0.1,1.4c0,0.5,0,1-0.1,1.5c0,0.5,0,1-0.1,1.4c0,0.5,0,1-0.1,1.5c0,0.3,0,0.6,0,0.9C19.1,22,19.1,22.1,19.1,22.3z
	 M14.3,26.4c0-0.1,0-0.2,0-0.2c0-0.1,0-0.3-0.1-0.4c0-0.4-0.1-0.7-0.1-1.1c-0.1-0.4-0.1-0.7-0.1-1.1c0-0.4-0.1-0.7-0.1-1.1
	c0-0.4-0.1-0.7-0.1-1.1c0-0.4-0.1-0.7-0.1-1.1c-0.1-0.4-0.1-0.7-0.1-1.1c-0.1-0.4-0.1-0.7-0.1-1.1c0-0.3-0.1-0.7-0.1-1
	c0-0.3-0.1-0.6-0.1-0.9c0-0.4-0.1-0.7-0.1-1.1c0-0.4-0.1-0.7-0.1-1.1c-0.1-0.4-0.1-0.7-0.1-1.1c0-0.3-0.1-0.7-0.1-1
	c-0.1-0.4-0.1-0.7-0.1-1.1c0-0.1,0-0.2-0.1-0.3c0,0,0,0-0.1,0c-2.5,0.6-4.9,1.2-7.4,1.7c0,0-0.1,0-0.1,0c0,0.2,0,0.4,0,0.6
	c0,0.2,0,0.4,0.1,0.6C5,13.8,5,14,5,14.2c0,0.2,0,0.4,0.1,0.6c0.1,0,0.1,0,0.2,0c1-0.2,1.9-0.4,2.9-0.7c0.1,0,0.2-0.1,0.4-0.1
	c0.1,0,0.2,0,0.3,0.2c0,0,0,0.1,0,0.1c0.2,0.6,0.3,1.2,0.5,1.8c0.2,0.9,0.5,1.8,0.7,2.7c0.3,1.1,0.5,2.1,0.8,3.2
	c0.1,0.3,0.2,0.6,0.2,1c0,0.1,0,0.1,0,0.2c0,0,0,0.1-0.1,0.1c0,0-0.1,0-0.1,0c-0.2,0-0.5,0-0.7,0c-0.3,0-0.7,0-1,0
	c-0.4,0-0.8,0-1.2,0c-0.4,0-0.7,0-1.1,0.1c-0.3,0-0.7,0-1,0c0,0-0.1,0-0.1,0C5.8,24,5.9,24.7,6,25.3c0,0,0,0,0,0
	c2.7,0.4,5.4,0.7,8.2,1C14.3,26.4,14.3,26.4,14.3,26.4z M23.2,10.8c0,0.1,0,0.2,0,0.2c0,0.3-0.1,0.6-0.1,0.9c0,0.4-0.1,0.7-0.1,1.1
	c0,0.3-0.1,0.6-0.1,0.9c-0.1,0.4-0.1,0.8-0.1,1.1c0,0.3-0.1,0.6-0.1,0.8c-0.1,0.4-0.1,0.8-0.1,1.1c0,0.3-0.1,0.6-0.1,0.8
	c-0.1,0.4-0.1,0.8-0.1,1.1c0,0.4-0.1,0.7-0.1,1.1c-0.1,0.4-0.1,0.8-0.1,1.2c0,0.3-0.1,0.6-0.1,0.9c0,0.3-0.1,0.6-0.1,0.8
	c0,0.3-0.1,0.6-0.1,0.9c0,0.3-0.1,0.6-0.1,0.9c0,0.3-0.1,0.6-0.1,0.9c0,0.3-0.1,0.5-0.1,0.8c0,0,0,0.1,0,0.1c0.1,0,0.1,0,0.2,0
	c0.3,0,0.6-0.1,1-0.1c0.5-0.1,0.9-0.1,1.4-0.2c0.5-0.1,0.9-0.1,1.4-0.2c0.4-0.1,0.8-0.1,1.2-0.2c0.5-0.1,1.1-0.2,1.6-0.2
	c0.5-0.1,0.9-0.1,1.4-0.2c0,0,0.1,0,0.1,0c0,0,0,0,0,0c0.1-0.6,0.1-1.1,0.2-1.7c0,0,0-0.1,0-0.1c0,0,0,0,0,0c0,0,0,0,0,0
	c0,0-0.1,0-0.1,0c-0.2,0-0.4,0-0.6,0c-0.5,0-1,0-1.5-0.1c-0.5,0-1,0-1.5-0.1c-0.5,0-0.9,0-1.4-0.1c0,0-0.1,0-0.1,0
	c-0.1,0-0.1-0.1-0.1-0.1c0,0,0-0.1,0-0.1c0-0.2,0.1-0.3,0.1-0.4c0.5-1.8,1-3.7,1.5-5.5c0.3-0.9,0.5-1.9,0.7-2.8
	c0.1-0.2,0.1-0.2,0.3-0.2c0,0,0,0,0,0c0.1,0,0.3,0.1,0.4,0.1c1,0.2,1.9,0.4,2.9,0.7c0,0,0.1,0,0.1,0c0-0.1,0-0.2,0-0.3
	c0-0.3,0.1-0.7,0.1-1c0-0.3,0-0.6,0.1-0.8c0,0,0-0.1,0-0.1c-0.1,0-0.1,0-0.1,0c-0.6-0.2-1.2-0.3-1.8-0.4c-1.1-0.3-2.2-0.5-3.3-0.8
	C24.6,11.2,23.9,11.1,23.2,10.8C23.3,10.8,23.2,10.8,23.2,10.8z"/>
<path class="st3" d="M19.1,22.3c0-0.2,0-0.3,0-0.4c0-0.3,0-0.6,0-0.9c0-0.5,0-1,0.1-1.5c0-0.5,0-1,0.1-1.4c0-0.5,0-1,0.1-1.5
	c0-0.5,0-1,0.1-1.4c0-0.3,0-0.6,0-0.9c0,0,0-0.1,0-0.1c-0.1,0-0.1,0-0.2,0c-0.4,0-0.8,0-1.3,0c-0.5,0-1.1,0-1.6,0
	c-0.1,0-0.1,0-0.2,0c0,0.1,0,0.2,0,0.2c0,0.5,0,1,0.1,1.5c0,0.6,0.1,1.2,0.1,1.8c0,0.5,0,1,0.1,1.5c0,0.5,0,1,0.1,1.5
	c0,0.5,0,1.1,0.1,1.6c0,0.1,0,0.1-0.1,0.2c-0.4,0.2-0.8,0.4-1.1,0.7C15.2,23,15.1,23,15,23.1c0,0-0.1,0-0.1,0.1c0,0,0-0.1,0-0.1
	c0-0.3-0.1-0.5-0.1-0.8c-0.1-0.4-0.1-0.7-0.1-1.1s-0.1-0.7-0.1-1.1c-0.1-0.4-0.1-0.7-0.1-1.1c0-0.3-0.1-0.5-0.1-0.8
	c-0.1-0.4-0.1-0.7-0.1-1.1c0-0.4-0.1-0.7-0.1-1.1c-0.1-0.4-0.1-0.7-0.1-1.1c0-0.3-0.1-0.7-0.1-1c-0.1-0.4-0.1-0.7-0.1-1.1
	c0-0.4-0.1-0.7-0.1-1.1c0-0.4-0.1-0.7-0.1-1.1c-0.1-0.4-0.1-0.7-0.1-1.1S13.1,9,13,8.6C13,8.3,13,8,12.9,7.8
	c-0.1-0.4-0.1-0.7-0.1-1.1c0-0.3-0.1-0.6-0.1-1c0-0.1,0-0.1,0.1-0.1c0,0,0.1,0,0.1,0c1,0,1.9,0,2.9,0c0.1,0,0.1,0,0.2,0
	c0,0.1,0,0.1,0,0.2c0,0.3,0,0.5,0,0.7c0,0.4,0,0.7,0,1.1c0,0.3,0,0.5,0,0.8c0,0.4,0,0.9,0.1,1.3c0,0.2,0,0.4,0,0.5
	c0,0.4,0,0.9,0.1,1.3c0,0.1,0,0.2,0,0.3c0,0.1,0,0.1,0,0.2c0,0,0.1,0,0.1,0c0,0,0.1,0,0.1,0c1,0,1.9,0,2.9,0c0.1,0,0.1,0,0.2,0
	c0,0,0-0.1,0-0.1c0-0.3,0-0.7,0-1c0-0.3,0-0.7,0-1c0-0.3,0-0.5,0-0.8c0-0.4,0-0.9,0.1-1.3c0-0.2,0-0.4,0-0.5c0-0.4,0-0.9,0.1-1.3
	c0-0.1,0-0.2,0-0.3c0,0,0.1,0,0.1,0c0,0,0.1,0,0.1,0c1,0,1.9,0,2.9,0c0.1,0,0.1,0,0.2,0c0,0,0,0,0,0c-0.7,5.8-1.4,11.6-2.1,17.3
	c0,0,0,0.1,0,0.1c0,0-0.1,0-0.1,0C20.4,23.1,19.2,22.3,19.1,22.3z"/>
<path class="st3" d="M14.3,26.4c-0.1,0-0.1,0-0.1,0c-2.7-0.4-5.4-0.7-8.2-1c0,0,0,0,0,0c-0.1-0.6-0.1-1.3-0.2-1.9c0,0,0.1,0,0.1,0
	c0.3,0,0.7,0,1,0c0.4,0,0.7,0,1.1-0.1c0.4,0,0.8,0,1.2,0c0.3,0,0.7,0,1,0c0.2,0,0.5,0,0.7,0c0,0,0.1,0,0.1,0c0,0,0.1,0,0.1-0.1
	c0-0.1,0-0.1,0-0.2c-0.1-0.3-0.2-0.6-0.2-1c-0.3-1.1-0.5-2.1-0.8-3.2c-0.2-0.9-0.5-1.8-0.7-2.7c-0.2-0.6-0.3-1.2-0.5-1.8
	c0,0,0-0.1,0-0.1c0-0.2-0.1-0.2-0.3-0.2c-0.1,0-0.2,0.1-0.4,0.1c-1,0.2-1.9,0.4-2.9,0.7c-0.1,0-0.1,0-0.2,0c-0.1-0.2,0-0.4-0.1-0.6
	c0-0.2,0-0.4-0.1-0.6c0-0.2,0-0.4-0.1-0.6c0-0.2,0-0.4,0-0.6c0.1,0,0.1,0,0.1,0c2.5-0.6,4.9-1.2,7.4-1.7c0,0,0,0,0.1,0
	c0,0.1,0,0.2,0.1,0.3c0.1,0.4,0.1,0.7,0.1,1.1c0,0.3,0.1,0.7,0.1,1c0.1,0.4,0.1,0.7,0.1,1.1c0,0.4,0.1,0.7,0.1,1.1
	c0,0.4,0.1,0.7,0.1,1.1c0,0.3,0.1,0.6,0.1,0.9c0,0.3,0.1,0.7,0.1,1c0.1,0.4,0.1,0.7,0.1,1.1c0.1,0.4,0.1,0.7,0.1,1.1
	c0,0.4,0.1,0.7,0.1,1.1c0,0.4,0.1,0.7,0.1,1.1c0,0.4,0.1,0.7,0.1,1.1c0.1,0.4,0.1,0.7,0.1,1.1c0,0.4,0.1,0.7,0.1,1.1
	c0,0.1,0,0.3,0.1,0.4C14.3,26.2,14.4,26.3,14.3,26.4z"/>
<path class="st3" d="M23.2,10.8c0.1,0,0.1,0,0.2,0c0.7,0.2,1.4,0.3,2.1,0.5c1.1,0.3,2.2,0.5,3.3,0.8c0.6,0.2,1.2,0.3,1.8,0.4
	c0,0,0.1,0,0.1,0c0,0,0,0.1,0,0.1c0,0.3,0,0.6-0.1,0.8c0,0.3-0.1,0.7-0.1,1c0,0.1,0,0.2,0,0.3c0,0-0.1,0-0.1,0
	c-1-0.2-1.9-0.4-2.9-0.7c-0.1,0-0.3-0.1-0.4-0.1c0,0,0,0,0,0c-0.2,0-0.2,0-0.3,0.2c-0.3,0.9-0.5,1.9-0.7,2.8c-0.5,1.8-1,3.7-1.5,5.5
	c0,0.2-0.1,0.3-0.1,0.4c0,0,0,0.1,0,0.1c0,0.1,0,0.1,0.1,0.1c0,0,0.1,0,0.1,0c0.5,0,0.9,0,1.4,0.1c0.5,0,1,0,1.5,0.1
	c0.5,0,1,0,1.5,0.1c0.2,0,0.4,0,0.6,0c0.1,0,0.1,0,0.1,0c0,0,0,0,0,0c0,0,0,0,0,0c0,0,0,0.1,0,0.1c-0.1,0.6-0.1,1.1-0.2,1.7
	c0,0,0,0,0,0c0,0-0.1,0-0.1,0c-0.5,0.1-0.9,0.1-1.4,0.2c-0.5,0.1-1.1,0.2-1.6,0.2c-0.4,0.1-0.8,0.1-1.2,0.2C25,26,24.5,26,24.1,26.1
	c-0.5,0.1-0.9,0.1-1.4,0.2c-0.3,0-0.6,0.1-1,0.1c-0.1,0-0.1,0-0.2,0c0,0,0-0.1,0-0.1c0-0.3,0.1-0.5,0.1-0.8c0-0.3,0.1-0.6,0.1-0.9
	s0.1-0.6,0.1-0.9c0-0.3,0.1-0.6,0.1-0.9c0-0.3,0.1-0.6,0.1-0.8c0-0.3,0.1-0.6,0.1-0.9c0.1-0.4,0.1-0.8,0.1-1.2
	c0-0.4,0.1-0.7,0.1-1.1c0.1-0.4,0.1-0.8,0.1-1.1c0-0.3,0.1-0.6,0.1-0.8c0.1-0.4,0.1-0.8,0.1-1.1c0-0.3,0.1-0.6,0.1-0.8
	c0.1-0.4,0.1-0.8,0.1-1.1c0-0.3,0.1-0.6,0.1-0.9c0-0.4,0.1-0.7,0.1-1.1c0-0.3,0.1-0.6,0.1-0.9C23.2,11,23.2,10.9,23.2,10.8z"/>
</svg>
