<?xml version="1.0" encoding="utf-8"?>
<!-- Generator: Adobe Illustrator 24.1.0, SVG Export Plug-In . SVG Version: 6.00 Build 0)  -->
<svg version="1.1" baseProfile="tiny" id="Vrstva_1"
	 xmlns="http://www.w3.org/2000/svg" xmlns:xlink="http://www.w3.org/1999/xlink" x="0px" y="0px" viewBox="0 0 249 275"
	 xml:space="preserve">
<g>
	<path display="none" fill="#FFFFFF" d="M-4.69,17.45c87.13,0,174.26,0,261.39,0c0,87.13,0,174.26,0,261.39
		c-87.13,0-174.26,0-261.39,0C-4.69,191.71-4.69,104.58-4.69,17.45z M248.9,165.03c-0.33-0.36-0.64-0.7-0.95-1.03
		c-0.98-1.04-1.95-2.08-2.95-3.1c-0.44-0.45-0.71-0.94-0.64-1.58c0.01-0.1,0-0.21,0-0.31c0-6.66,0-13.31,0-19.97
		c0-0.24-0.03-0.5,0.01-0.73c0.05-0.26,0.14-0.54,0.28-0.76c0.15-0.23,0.38-0.41,0.57-0.6c1.09-1.08,2.18-2.16,3.28-3.22
		c0.33-0.32,0.44-0.66,0.38-1.12c-0.62-4.52-1.44-9.01-2.52-13.44c-2.74-11.16-6.93-21.75-12.58-31.76
		c-6.33-11.22-14.24-21.22-23.65-30.01c-5.43-5.08-11.28-9.63-17.53-13.67c-9.42-6.09-19.47-10.8-30.16-14.18
		c-5.96-1.88-12.02-3.29-18.18-4.28c-1-0.16-2-0.28-3-0.44c-0.41-0.07-0.76,0-1.02,0.36c-0.06,0.08-0.14,0.16-0.21,0.23
		c-0.98,1.03-1.98,2.06-2.95,3.11c-0.3,0.33-0.64,0.52-1.1,0.48c-0.24-0.02-0.49,0-0.73,0c-4.7,0-9.41,0-14.11,0
		c-2.2,0-4.39-0.01-6.59,0.01c-0.53,0.01-0.92-0.17-1.28-0.56c-0.92-1-1.87-1.97-2.8-2.96c-0.86-0.92-0.64-0.81-1.89-0.7
		c-0.1,0.01-0.21,0.02-0.31,0.03c-2.97,0.41-5.93,0.88-8.86,1.49c-11.43,2.37-22.32,6.23-32.66,11.65
		c-12.65,6.63-23.84,15.17-33.59,25.6c-5.9,6.31-11.08,13.16-15.56,20.54c-5.21,8.59-9.32,17.67-12.34,27.25
		c-2.01,6.39-3.48,12.91-4.46,19.53c-0.11,0.75-0.32,1.5-0.24,2.26c1.11,1.2,2.17,2.4,3.29,3.54c0.53,0.54,0.8,1.12,0.74,1.86
		c-0.01,0.17,0,0.35,0,0.52c0,6.83,0,13.66,0,20.49c0,0.21-0.01,0.42,0,0.63c0.03,0.64-0.23,1.13-0.71,1.55
		c-0.97,0.85-1.88,1.76-2.86,2.6c-0.43,0.37-0.52,0.76-0.44,1.29c0.63,4.49,1.44,8.94,2.53,13.34c2.42,9.78,5.95,19.14,10.64,28.06
		c6.62,12.61,15.15,23.77,25.55,33.5c5.48,5.13,11.39,9.73,17.71,13.79c9.43,6.06,19.48,10.79,30.18,14.14
		c7.87,2.47,15.9,4.13,24.1,5.01c3.47,0.37,6.94,0.6,10.42,0.68c2.37,0.05,4.74-0.02,7.1-0.06c4.29-0.07,8.55-0.48,12.8-1.04
		c4.35-0.58,8.66-1.39,12.93-2.44c9.82-2.41,19.22-5.95,28.17-10.65c11.79-6.19,22.33-14.04,31.63-23.58
		c4.05-4.15,7.79-8.55,11.23-13.21c6.38-8.65,11.56-17.98,15.54-27.97c2.62-6.58,4.66-13.34,6.12-20.27
		C247.92,171.67,248.49,168.41,248.9,165.03z"/>
	<path fill="#0F0F0F" d="M248.9,165.03c-0.41,3.39-0.98,6.64-1.66,9.88c-1.46,6.93-3.5,13.69-6.12,20.27
		c-3.98,9.99-9.16,19.31-15.54,27.97c-3.44,4.66-7.18,9.06-11.23,13.21c-9.3,9.53-19.84,17.39-31.63,23.58
		c-8.95,4.7-18.35,8.24-28.17,10.65c-4.26,1.05-8.57,1.86-12.93,2.44c-4.25,0.56-8.51,0.97-12.8,1.04c-2.37,0.04-4.74,0.11-7.1,0.06
		c-3.48-0.08-6.96-0.31-10.42-0.68c-8.2-0.88-16.23-2.54-24.1-5.01c-10.7-3.35-20.75-8.08-30.18-14.14
		c-6.32-4.06-12.23-8.66-17.71-13.79c-10.4-9.73-18.93-20.89-25.55-33.5c-4.69-8.92-8.22-18.28-10.64-28.06
		c-1.09-4.4-1.9-8.85-2.53-13.34c-0.07-0.53,0.01-0.92,0.44-1.29c0.98-0.84,1.9-1.75,2.86-2.6c0.48-0.42,0.74-0.91,0.71-1.55
		c-0.01-0.21,0-0.42,0-0.63c0-6.83,0-13.66,0-20.49c0-0.17-0.01-0.35,0-0.52c0.06-0.75-0.21-1.32-0.74-1.86
		c-1.12-1.14-2.18-2.34-3.29-3.54c-0.08-0.76,0.13-1.51,0.24-2.26c0.97-6.63,2.44-13.14,4.46-19.53
		c3.02-9.58,7.14-18.66,12.34-27.25c4.48-7.39,9.66-14.24,15.56-20.54c9.75-10.43,20.94-18.97,33.59-25.6
		c10.34-5.42,21.23-9.28,32.66-11.65c2.93-0.61,5.89-1.09,8.86-1.49c0.1-0.01,0.21-0.02,0.31-0.03c1.25-0.11,1.03-0.22,1.89,0.7
		c0.93,0.99,1.88,1.96,2.8,2.96c0.36,0.39,0.74,0.57,1.28,0.56c2.2-0.02,4.39-0.01,6.59-0.01c4.7,0,9.41,0,14.11,0
		c0.24,0,0.49-0.02,0.73,0c0.46,0.04,0.79-0.15,1.1-0.48c0.98-1.04,1.97-2.07,2.95-3.11c0.07-0.08,0.15-0.15,0.21-0.23
		c0.26-0.36,0.6-0.42,1.02-0.36c1,0.16,2,0.28,3,0.44c6.16,0.99,12.23,2.39,18.18,4.28c10.69,3.38,20.75,8.1,30.16,14.18
		c6.25,4.04,12.1,8.59,17.53,13.67c9.41,8.8,17.31,18.79,23.65,30.01c5.65,10.01,9.85,20.59,12.58,31.76
		c1.09,4.43,1.9,8.92,2.52,13.44c0.06,0.46-0.04,0.8-0.38,1.12c-1.1,1.06-2.19,2.15-3.28,3.22c-0.2,0.2-0.43,0.37-0.57,0.6
		c-0.14,0.22-0.23,0.5-0.28,0.76c-0.05,0.23-0.01,0.49-0.01,0.73c0,6.66,0,13.31,0,19.97c0,0.1,0.01,0.21,0,0.31
		c-0.07,0.64,0.19,1.13,0.64,1.58c1,1.02,1.97,2.07,2.95,3.1C248.26,164.33,248.56,164.66,248.9,165.03z M16.81,149.84
		c-0.16,58.61,46.87,107.11,106.15,108.26c29.88,0.2,55.78-9.83,77.34-30.53c22-21.13,32.6-48.8,32.89-75.83
		c0.32-29.88-9.91-55.75-30.63-77.29c-20.92-21.74-48.77-32.36-75.67-32.79c-31.23-0.5-58.37,12.16-77.33,30.6
		C28.38,92.86,16.68,121.03,16.81,149.84z"/>
	<path display="none" fill="#FFFFFF" d="M16.81,149.84c-0.13-28.81,11.57-56.98,32.75-77.58c18.96-18.44,46.1-31.1,77.33-30.6
		c26.9,0.43,54.75,11.05,75.67,32.79c20.72,21.54,30.96,47.4,30.63,77.29c-0.29,27.03-10.89,54.7-32.89,75.83
		c-21.56,20.7-47.46,30.74-77.34,30.53C63.68,256.95,16.65,208.44,16.81,149.84z M135.03,182.55c0.6,0.49,9.42,5.75,11.73,6.99
		c0.15,0.08,0.31,0.13,0.51,0.2c0.06-0.25,0.14-0.45,0.16-0.65c5.08-42.33,10.16-84.66,15.24-126.99c0.01-0.1-0.04-0.2-0.06-0.3
		c-0.36-0.23-0.75-0.14-1.13-0.14c-7.14-0.01-14.29,0-21.43,0c-0.17,0-0.35-0.01-0.52,0.01c-0.23,0.02-0.47,0.07-0.76,0.12
		c-0.02,0.77-0.04,1.5-0.07,2.23c-0.11,3.17-0.23,6.33-0.33,9.5c-0.04,1.29-0.05,2.58-0.09,3.87c-0.1,3.2-0.22,6.4-0.33,9.61
		c-0.06,1.84-0.11,3.69-0.16,5.54c-0.08,2.61-0.17,5.22-0.25,7.83c-0.08,2.44-0.14,4.87-0.22,7.31c-0.01,0.23-0.08,0.46-0.13,0.75
		c-0.46,0.01-0.87,0.02-1.29,0.02c-7,0-14.01,0-21.01,0c-0.24,0-0.49,0.01-0.73-0.01c-0.2-0.01-0.39-0.06-0.63-0.1
		c-0.02-0.44-0.06-0.81-0.07-1.19c-0.02-0.84-0.02-1.67-0.05-2.51c-0.11-3.24-0.22-6.47-0.33-9.71c-0.04-1.29-0.05-2.58-0.1-3.87
		c-0.1-3.13-0.22-6.26-0.32-9.4c-0.06-1.85-0.09-3.69-0.15-5.54c-0.08-2.65-0.19-5.29-0.27-7.94c-0.06-1.81-0.09-3.62-0.15-5.43
		c-0.02-0.48-0.08-0.96-0.12-1.44c-0.45-0.19-0.87-0.12-1.28-0.12c-6.97,0-13.94,0-20.91,0c-0.28,0-0.56-0.01-0.84,0.01
		c-0.43,0.02-0.55,0.16-0.5,0.59c0.28,2.35,0.56,4.7,0.84,7.06c0.32,2.66,0.64,5.33,0.96,7.99c0.24,1.97,0.47,3.94,0.71,5.91
		c0.32,2.63,0.64,5.26,0.95,7.88c0.32,2.63,0.63,5.26,0.95,7.89c0.31,2.56,0.62,5.12,0.93,7.68c0.31,2.59,0.61,5.19,0.92,7.78
		c0.32,2.63,0.64,5.26,0.96,7.88c0.31,2.59,0.61,5.19,0.92,7.78c0.32,2.7,0.65,5.39,0.98,8.09c0.31,2.56,0.62,5.12,0.92,7.68
		c0.32,2.7,0.64,5.4,0.97,8.09c0.23,1.94,0.47,3.87,0.7,5.81c0.32,2.63,0.64,5.26,0.95,7.88c0.32,2.63,0.63,5.26,0.95,7.89
		c0.32,2.63,0.63,5.26,0.94,7.89c0.23,1.9,0.45,3.81,0.68,5.71c0.02,0.19,0.14,0.36,0.23,0.59c0.34-0.18,0.62-0.32,0.88-0.47
		c0.75-0.44,1.5-0.88,2.25-1.32c2.79-1.64,5.58-3.29,8.38-4.92c0.43-0.25,0.66-0.53,0.64-1.07c-0.18-3.83-0.32-7.65-0.48-11.48
		c-0.14-3.58-0.28-7.17-0.42-10.75c-0.14-3.62-0.28-7.24-0.42-10.86c-0.17-4.42-0.32-8.84-0.49-13.26
		c-0.13-3.58-0.27-7.17-0.41-10.75c-0.02-0.55-0.04-1.1,0-1.67c0.42-0.14,0.8-0.1,1.18-0.1c3.97,0,7.95,0,11.92,0
		c3.07,0,6.13,0,9.2,0c0.34,0,0.7-0.09,1.06,0.15c0.01,0.15,0.04,0.31,0.04,0.48c-0.09,2.19-0.18,4.38-0.27,6.58
		c-0.14,3.51-0.28,7.03-0.42,10.54c-0.14,3.69-0.28,7.38-0.42,11.07c-0.14,3.51-0.28,7.03-0.41,10.54
		c-0.14,3.69-0.28,7.38-0.42,11.07c-0.08,2.09-0.19,4.17-0.25,6.26C135.01,180.39,135.03,181.46,135.03,182.55z M100.27,212.74
		c0.09-0.56-0.01-1.04-0.06-1.51c-0.11-0.93-0.23-1.87-0.34-2.8c-0.31-2.56-0.61-5.12-0.91-7.68c-0.32-2.7-0.65-5.39-0.98-8.09
		c-0.31-2.59-0.63-5.19-0.94-7.78c-0.31-2.56-0.62-5.12-0.92-7.68c-0.31-2.59-0.61-5.19-0.92-7.78c-0.33-2.73-0.66-5.46-0.99-8.19
		c-0.31-2.59-0.63-5.19-0.94-7.78c-0.31-2.52-0.61-5.05-0.91-7.57c-0.25-2.11-0.5-4.22-0.75-6.33c-0.31-2.56-0.62-5.12-0.92-7.68
		c-0.31-2.59-0.61-5.19-0.93-7.78c-0.32-2.7-0.65-5.39-0.97-8.09c-0.3-2.52-0.6-5.05-0.9-7.57c-0.33-2.73-0.65-5.46-0.99-8.19
		c-0.09-0.68-0.1-1.38-0.33-2.04c-0.13-0.02-0.24-0.06-0.34-0.04c-17.99,4.26-35.97,8.53-53.96,12.79
		c-0.27,0.06-0.53,0.16-0.86,0.27c0.01,1.43,0.18,2.85,0.3,4.26c0.11,1.39,0.23,2.78,0.34,4.16c0.11,1.42,0.17,2.85,0.34,4.27
		c0.16,1.41,0.09,2.84,0.47,4.3c0.42-0.09,0.8-0.15,1.16-0.24c7.09-1.63,14.18-3.25,21.28-4.88c0.88-0.2,1.77-0.38,2.65-0.61
		c0.87-0.23,1.58,0.03,1.83,1.15c0.05,0.2,0.11,0.4,0.16,0.61c1.16,4.48,2.32,8.96,3.48,13.45c1.71,6.61,3.41,13.21,5.13,19.82
		c1.99,7.68,3.99,15.37,5.98,23.05c0.6,2.33,1.2,4.65,1.78,6.98c0.1,0.4,0.13,0.82,0.12,1.23c0,0.3-0.2,0.52-0.51,0.58
		c-0.27,0.05-0.55,0.08-0.83,0.09c-1.67,0.07-3.34,0.13-5.01,0.19c-2.5,0.1-5.01,0.21-7.51,0.3c-2.96,0.11-5.92,0.19-8.87,0.31
		c-2.64,0.1-5.29,0.22-7.93,0.32c-2.4,0.09-4.8,0.17-7.2,0.26c-0.23,0.01-0.46,0.09-0.76,0.16c0.52,4.71,0.99,9.38,1.53,13.97
		c0.14,0.1,0.19,0.16,0.26,0.17c19.93,2.55,39.86,5.09,59.8,7.63C99.61,212.77,99.89,212.74,100.27,212.74z M164.95,98.63
		c-0.13,0.51-0.19,1.06-0.25,1.61c-0.25,2.21-0.51,4.43-0.77,6.64c-0.3,2.63-0.61,5.26-0.9,7.89c-0.24,2.11-0.47,4.22-0.71,6.33
		c-0.32,2.8-0.65,5.6-0.98,8.41c-0.24,2.04-0.47,4.08-0.7,6.13c-0.32,2.8-0.65,5.61-0.97,8.41c-0.23,2.04-0.46,4.08-0.7,6.13
		c-0.32,2.8-0.65,5.6-0.98,8.41c-0.3,2.63-0.6,5.26-0.9,7.89c-0.33,2.84-0.66,5.67-0.98,8.51c-0.24,2.11-0.49,4.22-0.74,6.33
		c-0.24,2.04-0.47,4.08-0.7,6.13c-0.24,2.11-0.47,4.22-0.71,6.33c-0.25,2.21-0.51,4.43-0.77,6.64c-0.24,2.11-0.49,4.22-0.73,6.33
		c-0.23,1.97-0.46,3.94-0.68,5.92c-0.02,0.16,0.03,0.32,0.04,0.5c0.51,0.11,0.96,0.01,1.4-0.05c2.38-0.31,4.76-0.64,7.15-0.95
		c3.45-0.45,6.91-0.89,10.36-1.35c3.42-0.45,6.84-0.91,10.25-1.36c2.94-0.39,5.87-0.75,8.81-1.14c3.97-0.52,7.94-1.06,11.91-1.58
		c3.42-0.45,6.84-0.88,10.26-1.33c0.23-0.03,0.45-0.13,0.64-0.19c0.06-0.13,0.11-0.19,0.12-0.25c0.36-4.16,0.72-8.33,1.08-12.49
		c0.02-0.21,0.01-0.42,0.02-0.63c0-0.03-0.02-0.07-0.03-0.1c-0.01-0.03-0.03-0.06-0.09-0.17c-0.29-0.03-0.63-0.09-0.97-0.11
		c-1.43-0.06-2.85-0.1-4.28-0.15c-3.69-0.14-7.38-0.28-11.07-0.42c-3.69-0.14-7.38-0.28-11.07-0.42c-3.31-0.12-6.61-0.23-9.92-0.35
		c-0.21-0.01-0.42-0.01-0.62-0.05c-0.5-0.1-0.71-0.37-0.68-0.89c0.02-0.31,0.09-0.62,0.16-0.92c0.27-1.05,0.54-2.09,0.82-3.13
		c3.53-13.4,7.07-26.8,10.6-40.2c1.82-6.9,3.63-13.81,5.45-20.71c0.35-1.32,0.8-1.6,2.11-1.34c0.03,0.01,0.07,0.02,0.1,0.02
		c0.98,0.22,1.97,0.45,2.95,0.67c7.1,1.6,14.2,3.2,21.3,4.8c0.19,0.04,0.39,0.04,0.64,0.06c0.17-0.83,0.21-1.63,0.27-2.42
		c0.18-2.47,0.37-4.93,0.55-7.4c0.15-2.05,0.31-4.1,0.46-6.15c0.02-0.26-0.03-0.53-0.04-0.81c-0.37-0.11-0.66-0.21-0.96-0.28
		c-4.51-1.07-9.01-2.13-13.52-3.2c-8.13-1.93-16.26-3.87-24.39-5.8c-5.18-1.23-10.37-2.46-15.55-3.69
		C165.69,98.61,165.36,98.45,164.95,98.63z"/>
</g>
<path fill="#FFFFFF" d="M201.81,155.82c-11.39-13.98-20.11-26.52-21.89-29.12c-4.5-15.73-9.43-21.55-11.48-23.41l-8.17-14.36
	l-13.46-4.7h-1.07c-1.3-0.89-2.59-1.54-3.84-1.96c4.24-2.59,7.16-5.42,8.79-7.22c0.44,0.04,0.88,0.05,1.31,0.05
	c5.93,0,10.03-3.52,11.57-5.68c3.77-5.57,4.77-10.52,2.99-14.69c-1.61-3.77-5.02-5.72-7.54-6.68
	c-1.58-27.25-20.62-35.12-26.81-36.96c-4.11-7.37-11.44-11.55-20.37-11.55c-2.38,0-3.99,0.31-4.17,0.35l-8.42,1.69l6.96,5.03
	c0.92,0.67,1.24,1.21,1.32,1.6C92,15.89,82.56,25.58,79.46,37.04c-2.76,10.19,0.33,18.95,2.46,23.34l-2.06,1.74l-0.29,1.2
	c-1.35,5.66-0.69,10.23,1.96,13.59c2.76,3.49,7.5,5.34,13.73,5.34c1.54,0,2.92-0.12,3.9-0.23c1.28,0.84,2.5,1.55,3.63,2.15
	l-13.86,4.27l-0.74,1.07C86.1,92.52,73.87,117.1,71.44,122l-0.85,1.71l0.88,1.69c4.94,9.47,11.56,18.96,13.8,22.11
	c0.09,4.9,3.06,8.05,3.36,8.35c2.53,2.7,5.06,4.37,7.54,4.97l-5.2,19.65h3.52L71.36,241.7c-4.92,0.79-8.25,2.24-10.09,4.36
	c-1.61,1.86-1.62,3.63-1.54,4.31l0.36,3.35h26.76c9.36,0,12.88-1.06,13.95-4.19c0.33-0.98,0.29-2.02-0.07-2.95l4.84,0.39L124,182.15
	l20.04,64.89l3.69-0.4c-0.75,1.57-0.39,2.94-0.14,3.58c1.22,3.1,4.96,3.51,8.46,3.51c0.34,0,0.61-0.01,0.76-0.01l31.92,0.72
	l0.18-3.65c0.26-5.26-4.97-7.95-10.74-8.86l-23.7-61.45h2.63l-1.63-10.93c5.6-2.42,9.14-8.13,9.9-9.45
	c2.65-3.75,4.96-3.75,5.73-3.75c4.92,0,10.75,6.42,12.4,8.67l0.31,0.37c7.03,7.38,4.61,14.65,4.51,14.92l-1.29,3.45l3.42,1.35
	c4.24,1.67,8.3,2.52,12.08,2.52c6.81,0,10.44-2.78,10.83-3.09l1.27-1.03l0.12-1.62C215.36,173.58,204.12,158.76,201.81,155.82z
	 M202.55,180.14c-1.98,0-4.12-0.33-6.38-0.99c0.47-4.29-0.06-11.61-6.76-18.75c-1.41-1.87-9.11-11.54-18.31-11.54
	c-3.22,0-7.92,1.23-11.98,7.11l-0.19,0.3c-0.93,1.65-4.41,6.45-8.06,6.85l-3.87,0.43l1.41,9.44h-4.86l24.64,63.87l-6.48,0.71
	l0.96,4.12c0.3,1.3,1.23,3.18,3,4.74l-8.9-0.2l-0.11,0c-0.05,0-0.73,0.01-1.22,0v-7.97l-6.04,0.66l-20.37-65.94l-10.21,0.02
	l-18.78,66l-6.84-0.55v7.48c-1.21,0.16-3.22,0.3-6.47,0.3h-2.95c0.89-0.97,1.65-2.31,2.04-4.12l0.9-4.18l-5.73-0.46l21.72-57.47v-7
	h-1.99l9.16-34.61l-11.54,15.37c-0.04,0.04,0-0.15-0.05-0.15c-0.25,0-1.62-0.14-4.2-2.89c-0.06-0.07-1.52-1.67-1.28-3.96l0.15-1.44
	l-0.86-1.17c-0.08-0.11-7.49-10.24-13.08-20.53c5.01-10.07,12.31-24.55,14.71-28.79l10.71-3.25l8.44-3.36l11.05-7.37l-10.82-0.86
	c-0.04,0-4.33-0.39-10.91-4.96l-1.3-0.9l-1.55,0.29c-0.02,0-1.8,0.34-4.09,0.34c-2.19,0-6.13-0.32-7.84-2.49
	c-1.02-1.29-1.29-3.32-0.8-6.04l5.08-4.28l-1.91-2.8c-0.06-0.09-6.09-9.11-3.1-20.15c2.6-9.6,11.19-17.92,25.52-24.74l0.96-0.46
	l0.58-0.9c0.88-1.37,1.48-3.42,1.2-5.63c4.08,0.65,8.59,2.82,11.28,8.6l0.83,1.77l1.93,0.33c0.22,0.04,22.23,4.19,22.62,32.95
	l0.07,3.09l3.04,0.55c1.02,0.19,4.13,1.16,4.95,3.12c0.68,1.62-0.12,4.26-2.25,7.44c-0.26,0.33-2.12,2.47-5.42,2.47
	c-0.64,0-1.31-0.08-2-0.24l-2.42-0.53l-1.46,1.99c-0.06,0.08-6.16,8.28-17.92,11.06l-2.97,0.7l0.26,9.68h12.34l1.2-1.01
	c0.53,0.1,1.6,0.46,3.19,1.69l1.01,0.78h2.29l9.6,3.35l7.12,12.51l0.32,0.67l0.7,0.49c0.05,0.04,4.97,4.12,9.6,20.58l0.16,0.58
	l0.34,0.5c0.09,0.14,9.67,14.25,22.57,30.09c4.12,5.26,9.84,14.11,11.09,18.95C206.02,179.81,204.53,180.14,202.55,180.14z"/>
<g>
	<path fill="#48311B" d="M134.39,170.5c0,0-7.03-16.31,7.16-8.5c0,0,9.76,13.3,20.65-3.9c0,0,9.23-16.77,27.16,8.43
		c0,0,4.62,4.97,2.48,15.09c0,0,12.07,5.14,19.17,0c0,0,0.89-6.48-15.54-28.05c0,0-16.06-19.26-19.25-25.74
		c0,0-5.12-18.01-11.38-22.65l-9.48-13.3l-16.74,4.91l-8.56,14.85l-3.11,6.22l-7.69,6.1C119.27,123.98,111.54,148.94,134.39,170.5z"
		/>
	<path fill="#E52E2C" d="M193.34,181.21c0,0,11.36,3.43,16.09,0c0,0,0.93-2.24-3.96-10.71c-2.72-4.72-7.24-11.37-14.74-20.65
		c0,0-18.76-20.87-22.06-38.06c0,0-4.09-4.1-5.16-7.56l-5.69,1.21c0,0,8.47,7.05,8.47,15.12c0,0-0.89,9.05,13.13,25.75
		C179.42,146.3,197.83,166.06,193.34,181.21z"/>
	<path fill="#A71916" d="M194.42,176.83c0,0,7.36,4.01,11.05-6.34c0,0,4.23,6.22,3.96,10.71c0,0-3.97,3.93-16.09,0
		C193.34,181.21,194.33,179.5,194.42,176.83z"/>
	<path fill="#A81916" d="M148.36,165.59l-0.71-2.72c0,0,8.52-20.71-5.2-40.48c0,0,3.33-9,7.82-2.96c0,0,1.76-2.6,1.76-5.56
		c0,0,5.97-12.78,11.5-4.97c0,0,1.63,3.32,1.63,11.13c0,0-0.94,9.53,12.07,25.8c0,0,11.95,14.6,13.14,19.76
		c0,0-14.44-20.71-25.56-11.95c0,0-2.61,1.78-6.86,7.81C157.95,161.44,153.87,165.92,148.36,165.59z"/>
	<path fill="#C41718" d="M153.09,126.3l0.71-4.5c0,0,5.81-14.21,11.3-4.03c0,0-1.68,13.6,18.83,36.8c0,0-13.04-11.48-23.95,0.47
		c0,0-5.24,6.98-11.52,5.33c0,0,5.66-15.73-2.73-32.42c0,0,2.85-8.53,6.05-4.26L153.09,126.3z"/>
	<path fill="#4E351A" d="M150.49,110.56c0,0-0.35,11.12,5.56,23.31c0,0,6.23,8.96,4.97,18.23c0,0,0.17-8.17-7.46-21.3
		C153.56,130.8,149.3,119.44,150.49,110.56z"/>
	<path fill="#AA5726" d="M139.73,153.07c0,0-12.05-8.63-10.92-13.56c0,0-2.1,2.51-5.62,1.67c0,0,0.55,2.73-2.8,6.41
		c0,0,4.52,11.1,10.3,17.26C130.69,164.84,127.9,151.24,139.73,153.07z"/>
	<path fill="#BA742A" d="M121.07,149.14c0,0,1.4-4.6,9.28-4.99c0,0,0.87,2.96,9.38,8.91c0,0-11.35-2.47-9.04,11.77
		C130.69,164.84,125.17,158.13,121.07,149.14z"/>
	<path fill="#D69223" d="M136.48,151.26c0,0-9.21,1.48-6.62,12.59c0,0-4.72-6.02-7.09-11.15
		C122.76,152.7,125.77,143.5,136.48,151.26z"/>
</g>
<g>
	<path fill="#F1D3C2" d="M96.94,238.04v9.51c0,0,3.29,2.75-8.97,2.38l-24.52,0.04c0,0-0.73-4.06,14.09-4.97c0,0,4.58,0.55,5.31-6.95
		H96.94z"/>
	<path fill="#F1D3C2" d="M151.68,238.04v9.51c0,0-3.29,2.75,8.97,2.38l24.52,0.04c0,0,0.73-4.06-14.09-4.97c0,0-4.58,0.55-5.31-6.95
		H151.68z"/>
</g>
<path fill="#5F3E1B" d="M86.7,61.27c0,0-20.26-29.4,23.91-50.39c0,0,2.2-4.64-2.19-7.32c0,0,15.86-2.69,21.23,10.73
	c0,0,25.59,4.63,25.73,36.6c0,0,13.64,2.09,5.61,15.87c0,0-4.36,5.6-11.81,4.27c0,0-3.91,8.38-17.82,11.93c0,0-17.2,5.57-31.29-4.86
	c0,0-20.5,4.03-16.84-13.91C83.22,64.19,84.68,63.1,86.7,61.27z"/>
<path fill="#F1D1BF" d="M94.38,66.02c0,0-7.69-21.23,9.51-38.8c0,0,4.27,21.72,31.36,4.89c0,0,10.25,6.09,13.66,14.51
	c0,0,0.98,6.71,0,14.04c0,0,7.56-14.64,11.71-2.68c0,0,3.66,11.22-12.69,10.49c0,0-4.14,12.94-26.59,14.4c0,0-8.78,1.47-21.47-6.83
	c0,0-14.64,4.4-14.89-9.27C84.98,66.76,86.21,59.43,94.38,66.02z"/>
<path fill="#ECA888" d="M152.21,65.66c0,0-1.32-5.93,2.38-8.78C154.59,56.87,165.38,58.15,152.21,65.66z"/>
<path fill="#ECA888" d="M96.94,74.26c0,0-11.16,1.28-9.33-8.6C87.61,65.66,91.64,63.1,96.94,74.26z"/>
<path fill="#614322" d="M112.86,59.46c0,2.41-1.51,4.36-3.38,4.36c-1.87,0-3.39-1.96-3.39-4.36c0-2.41,1.52-4.37,3.39-4.37
	C111.35,55.1,112.86,57.05,112.86,59.46z"/>
<path fill="#614322" d="M139.8,56.14c0,2.41-1.51,4.36-3.39,4.36c-1.87,0-3.38-1.96-3.38-4.36c0-2.41,1.52-4.37,3.38-4.37
	C138.28,51.77,139.8,53.72,139.8,56.14z"/>
<polyline fill="none" stroke="#1D1D1B" stroke-miterlimit="10" points="120.73,65.41 122.98,61.27 125.86,63.83 "/>
<path fill="none" stroke="#1D1D1B" stroke-width="2" stroke-miterlimit="10" d="M114.87,68.22c0,0,11.4,9.16,16.47-1.46"/>
<path fill="none" stroke="#1D1D1B" stroke-width="2" stroke-miterlimit="10" d="M101.88,52.85c0,0,4.03-11.34,10.98-3.11"/>
<path fill="none" stroke="#1D1D1B" stroke-width="2" stroke-miterlimit="10" d="M133.03,45.35c0,0,5.09-7.32,8.93,3.29"/>
<polygon fill="#F1D1BE" points="118.54,79.75 118.54,86.7 110.85,86.7 114.87,93.29 126.21,108.45 134.64,93.29 139.03,86.52 
	129.15,86.52 128.97,79.75 "/>
<polygon fill="#E7E7E8" points="104.99,87.25 111.12,84.87 124.67,106.19 120.73,113.24 "/>
<polygon fill="#FFFFFF" points="138.21,91.95 122.21,120.95 116.96,141.95 113.96,158.45 124.71,159.2 144.96,93.95 "/>
<path fill="#E7E7E8" d="M103.35,87.98l-12.08,3.66c0,0-12.81,22.51-16.47,32.02c0,0,7.32,14.64,14.27,22.69c0,0-0.18-9.7,7.87-10.98
	l-9.53-11.53l11.55-14.27l2.93,25.07l1.46,8.24l8.23-0.18v-7.5c0,0,2.69-12.08,8.42-19.89C120,115.31,106.82,92.74,103.35,87.98z"/>
<path fill="#E7E7E8" d="M112.86,142.76c0,0.55,7.14,0,7.14,0s0.85-12.31,5.85-21.1l18.67-33.68c0,0-4.91-3.54-7.03-2.32
	c0,0-14.84,25.37-22.66,45.5C114.83,131.17,112.86,132.93,112.86,142.76z"/>
<path fill="#E7E7E8" d="M122.78,143c0,0-0.58-12.56,5.91-22.81c0,0,15.28-29.28,17.48-32.21l11.53,4.03c0,0,10.25,16.84,15.55,29.65
	c0,0,2.89,1.28-12.28,23.79c0,0-1.45-7.87-7.67-10.61l7.67-11.34c0,0-8.58-12.26-10.59-14.64c0,0-2.75,21.41-3.48,35.5l5.86,32.39
	h-35.13c0,0,1.35-15.19,5.16-20.13C122.78,156.61,124.76,149.12,122.78,143z"/>
<path fill="#E7E7E8" d="M103.9,147.27c0,0-4.39,14.27-8.05,29.46h10.25c0,0,3.66-26.72,4.58-30.38L103.9,147.27z"/>
<path fill="#E7E7E8" d="M112.86,146.36c0,0-4.39,17.93-4.76,30.38h7.69c0,0,0.73-20.13,4.94-29.28L112.86,146.36z"/>
<polygon fill="#613C1C" points="101.88,143.07 146.72,143.07 146.72,150.02 129.7,150.02 138.12,163.38 129.33,165.03 
	125.86,150.02 122.98,150.02 120.73,164.11 110.67,164.11 118.35,150.2 101.88,150.2 "/>
<polygon fill="#E7E7E8" points="98.96,179.3 121.65,179.3 102.8,242.98 75.71,240.79 "/>
<polygon fill="#E7E7E8" points="126.95,179.3 149.83,179.3 173.44,240.05 146.72,242.98 "/>
<g>
	<path fill="#F1D3C2" d="M98,157.5c0,0-13.54-3.66-7.69-17.57c0,0,5.49-7.68,13.36-3.47c0,0,1.83,2.74-9.15,4.02l0.18,2.5
		c0,0,6.59-2.87,10.8-1.04c0,0,3.29,2.01-11.35,4.39l-0.18,1.28c0,0,8.23-0.37,10.8,1.28c0,0,2.01,3.29-2.38,3.29
		c0,0-2.93,0.37-9.33-2.02c0,0,6.04,3.84,7.87,4.76C100.93,154.94,101.29,157.69,98,157.5z"/>
	<path fill="#F1D3C2" d="M151.31,157.5c0,0,13.54-3.66,7.68-17.57c0,0-5.49-7.68-13.36-3.47c0,0-1.83,2.74,9.15,4.02l-0.18,2.5
		c0,0-6.59-2.87-10.8-1.04c0,0-3.29,2.01,11.35,4.39l0.18,1.28c0,0-8.23-0.37-10.8,1.28c0,0-2.01,3.29,2.38,3.29
		c0,0,2.93,0.37,9.33-2.02c0,0-6.04,3.84-7.87,4.76C148.38,154.94,148.02,157.69,151.31,157.5z"/>
</g>
<path fill="#0F0F0F" d="M244.99,160.9c-0.44-0.45-0.71-0.94-0.64-1.58c0.01-0.1,0-0.21,0-0.31c0-2.19,0-4.37,0-6.56h-11.18
	c-0.47,26.8-11.07,54.17-32.88,75.11c-21.56,20.7-47.46,30.74-77.34,30.53c-58.4-1.13-104.91-48.22-106.13-105.65H4.6
	c0,2.37,0,4.73,0,7.1c0,0.21-0.01,0.42,0,0.63c0.03,0.64-0.23,1.13-0.71,1.55c-0.97,0.85-1.88,1.76-2.86,2.6
	c-0.43,0.37-0.52,0.76-0.44,1.29c0.63,4.49,1.44,8.94,2.53,13.34c2.42,9.78,5.95,19.14,10.64,28.06
	c6.62,12.61,15.15,23.77,25.55,33.5c5.48,5.13,11.39,9.73,17.71,13.79c9.43,6.06,19.48,10.79,30.18,14.14
	c7.87,2.47,15.9,4.13,24.1,5.01c3.47,0.37,6.94,0.6,10.42,0.68c2.37,0.05,4.74-0.02,7.1-0.06c4.29-0.07,8.55-0.48,12.8-1.04
	c4.35-0.58,8.66-1.39,12.93-2.44c9.82-2.41,19.22-5.95,28.17-10.65c11.79-6.19,22.33-14.04,31.63-23.58
	c4.05-4.15,7.79-8.55,11.23-13.21c6.38-8.65,11.56-17.98,15.54-27.97c2.62-6.58,4.66-13.34,6.12-20.27
	c0.68-3.24,1.25-6.49,1.66-9.88c-0.33-0.36-0.64-0.7-0.95-1.03C246.97,162.96,246,161.92,244.99,160.9z"/>
<g>
</g>
<g>
</g>
<g>
</g>
<g>
</g>
<g>
</g>
<g>
</g>
<g>
</g>
<g>
</g>
<g>
</g>
<g>
</g>
<g>
</g>
<g>
</g>
<g>
</g>
<g>
</g>
<g>
</g>
</svg>
