<?xml version="1.0" encoding="utf-8"?>
<!-- Generator: Adobe Illustrator 23.0.1, SVG Export Plug-In . SVG Version: 6.00 Build 0)  -->
<svg version="1.1" baseProfile="tiny" id="Vrstva_1"
	 xmlns="http://www.w3.org/2000/svg" xmlns:xlink="http://www.w3.org/1999/xlink" x="0px" y="0px" viewBox="0 0 1084 1422.11"
	 xml:space="preserve">
<path fill="#FFFFFF" d="M536.72,1081.08c-2.77,0-5.31-0.03-7.77-0.08c-14.65-0.32-29.72-1.3-44.79-2.92
	c-35.14-3.76-69.96-11-103.51-21.52c-45.53-14.28-89.16-34.72-129.67-60.75c-27.09-17.41-52.69-37.34-76.08-59.23
	c-44.59-41.72-81.51-90.12-109.73-143.87c-19.92-37.94-35.3-78.5-45.7-120.56c-4.43-17.9-7.98-36.62-10.87-57.24
	c-1.08-7.75,2.45-12.6,5.61-15.3c2.1-1.8,4.15-3.7,6.32-5.72c1.56-1.45,3.17-2.95,4.83-4.43c0-0.32,0.02-1.35,0.02-1.58l0-86.22
	c0-0.15,0-0.3-0.01-0.45c-0.01-0.51-0.03-1.17,0.01-1.93c-3.46-3.54-6.8-7.19-10.04-10.73c-1.33-1.45-2.66-2.91-4.01-4.36
	l-2.47-2.67l-0.39-3.61c-0.43-3.97,0.2-7.46,0.7-10.26c0.12-0.68,0.25-1.36,0.35-2.04c4.22-28.75,10.66-56.98,19.15-83.9
	c12.89-40.89,30.72-80.27,53.01-117.05c19.18-31.64,41.67-61.34,66.85-88.26c41.81-44.71,90.35-81.7,144.27-109.94
	c43.95-23.02,91.15-39.86,140.29-50.05c11.49-2.38,23.93-4.48,38.02-6.41c0.62-0.08,1.23-0.15,1.85-0.2
	c0.56-0.05,1.05-0.1,1.47-0.14c1.02-0.1,1.99-0.2,3.03-0.2c6.22,0,9.39,3.43,11.7,5.93l0.74,0.8c1.61,1.72,3.23,3.42,4.86,5.11
	c1.93,2.01,3.91,4.09,5.87,6.2c3.67-0.03,7.35-0.04,11.03-0.04c2.52,0,12.57,0.02,15.07,0.02h59.39c0.23,0,0.47-0.01,0.7-0.01
	c0.12,0,0.25-0.01,0.37-0.01c2.44-2.59,4.9-5.17,7.36-7.74l3.92-4.11c2.87-3.74,7.04-5.78,11.8-5.78c0.93,0,1.86,0.08,2.84,0.23
	c2,0.32,4.01,0.6,6.02,0.89c2.21,0.31,4.41,0.62,6.61,0.98c26.89,4.31,53.16,10.49,78.09,18.37c45.85,14.5,89.45,35.01,129.57,60.93
	c26.85,17.35,52.2,37.11,75.32,58.73c40.46,37.83,74.64,81.2,101.57,128.91c24.18,42.83,42.37,88.73,54.05,136.41
	c4.46,18.22,8,37.09,10.83,57.69c0.75,5.47-0.93,10.35-4.85,14.12c-3.5,3.36-7.03,6.86-10.45,10.24l-3.26,3.22
	c-0.13,0.13-0.27,0.26-0.4,0.39c0,0.2,0.01,0.4,0.01,0.6v84.02l0,0.07c0,0.18,0.01,0.42,0.01,0.7c3.13,3.2,6.2,6.47,9.18,9.63
	l2.89,3.07c0.94,0.99,1.86,2.01,2.83,3.07l1.26,1.38l3.42,3.72l-0.6,5.02c-1.62,13.52-3.95,27.43-7.13,42.54
	c-6.25,29.69-15.1,59-26.3,87.12c-17.03,42.75-39.49,83.17-66.75,120.13c-14.66,19.87-30.88,38.96-48.21,56.74
	c-39.72,40.73-85.42,74.8-135.83,101.26c-38.13,20.02-78.85,35.41-121.03,45.76c-18.36,4.5-37.06,8.03-55.57,10.48
	c-21.03,2.78-38.55,4.21-55.13,4.49c-1.98,0.03-3.97,0.07-5.95,0.11C547.89,1080.98,542.28,1081.08,536.72,1081.08z M534.56,991.54
	c1.19,0.01,2.38,0.01,3.56,0.01c0,0,0.01,0,0.01,0c60.63,0,117.71-10.47,169.66-31.12c52.34-20.81,100.93-52.54,144.42-94.3
	c43.78-42.04,77.74-91.34,100.93-146.55c22-52.36,33.47-107.77,34.09-164.69c0.66-61.16-9.58-118.9-30.46-171.6
	c-20.89-52.74-52.98-101.81-95.36-145.85c-41.57-43.2-90.72-76.88-146.08-100.1c-52.44-21.99-107.81-33.6-164.56-34.51
	c-2.44-0.04-4.9-0.06-7.33-0.06c-60.14,0-118.48,11.77-173.39,34.99c-51.12,21.62-97.15,52.14-136.81,90.71
	c-43.13,41.95-76.8,91.29-100.07,146.65c-23.1,54.97-34.68,112.79-34.41,171.85c-0.16,58.96,11.14,116.25,33.58,170.36
	c21.73,52.39,52.96,99.64,92.82,140.42C307.22,941.74,417.1,989.25,534.56,991.54z"/>
<polygon fill="#90C6EC" points="329.73,1039.16 352.54,1083.65 357.89,1142.49 361.27,1252.3 370,1336.77 380.13,1376.47 
	393.93,1324.94 401.25,1295.94 409.98,1228.37 435.32,1090.69 439.26,1060.28 "/>
<polygon fill="#90C6EC" points="979.39,835.12 965.87,943.24 957.24,1081.02 947.48,1014.95 "/>
<polygon fill="#90C6EC" points="937.71,963.89 923.45,1064.5 903.93,1221.42 889.29,1083.65 "/>
<polygon fill="#90C6EC" points="860.76,1112.18 852.12,1226.68 849.12,1266.1 840.48,1325.04 834.48,1251.83 854,1108.42 "/>
<polygon fill="#90C6EC" points="788.3,1105.42 762.02,1293.13 751.13,1206.41 "/>
<polygon fill="#90C6EC" points="266.66,1025.36 274.55,1126.16 283.28,1157.42 300.45,1283.84 303.83,1246.67 272.3,1024.24 "/>
<g>
	<path fill="#EAEEEE" d="M538.27,1017.06c-63.89,0-125.87-12.51-184.21-37.19c-56.35-23.84-106.97-57.96-150.43-101.42
		c-43.46-43.46-77.59-94.08-101.42-150.43C77.53,669.67,65.01,607.69,65.01,543.8s12.51-125.87,37.19-184.21
		c23.84-56.35,57.96-106.97,101.42-150.43c43.46-43.46,94.08-77.59,150.43-101.42c58.35-24.68,120.32-37.19,184.21-37.19
		s125.87,12.51,184.21,37.19c56.36,23.84,106.97,57.96,150.43,101.42c43.46,43.46,77.59,94.08,101.42,150.43
		c24.68,58.35,37.19,120.32,37.19,184.21s-12.51,125.87-37.19,184.21c-23.84,56.35-57.96,106.97-101.42,150.43
		c-43.46,43.46-94.08,77.59-150.43,101.42C664.14,1004.55,602.16,1017.06,538.27,1017.06z"/>
	<path fill="#90C6EC" d="M538.27,71.04c63.82,0,125.74,12.5,184.02,37.15c56.3,23.81,106.85,57.9,150.27,101.32
		c43.42,43.42,77.51,93.98,101.32,150.27c24.65,58.28,37.15,120.2,37.15,184.02s-12.5,125.74-37.15,184.02
		c-23.81,56.3-57.9,106.85-101.32,150.27c-43.42,43.42-93.98,77.51-150.27,101.32c-58.28,24.65-120.2,37.15-184.02,37.15
		s-125.74-12.5-184.02-37.15c-56.3-23.81-106.85-57.9-150.27-101.32c-43.42-43.42-77.51-93.98-101.32-150.27
		c-24.65-58.28-37.15-120.2-37.15-184.02s12.5-125.74,37.15-184.02c23.81-56.3,57.9-106.85,101.32-150.27
		c43.42-43.42,93.98-77.51,150.27-101.32C412.54,83.54,474.45,71.04,538.27,71.04 M538.27,70.04
		c-261.65,0-473.76,212.11-473.76,473.76s212.11,473.76,473.76,473.76s473.76-212.11,473.76-473.76S799.92,70.04,538.27,70.04
		L538.27,70.04z"/>
</g>
<path fill="#CECDCE" d="M106.74,678.76c9.21,13.17,39.42,35.04,55.19,55.56c15.7,20.44,40.58,42.47,64.48,68.61
	c25.91,28.35,44.82,43.43,62.51,55.75c16.64,11.58,35.45,20.05,73.49,36.32c30.77,13.16,43.57,23.62,60.82,27.87
	c8.95,2.2,23.88,7.87,81.93,12.67c42.53,3.52,61.91-2.4,71.8-2.53c38.03-0.52,58.33-16.42,76.87-20.27
	c8.99-1.87,31.61-5.94,66.73-18.58c29.82-10.74,44.11-31.78,63.35-41.39c32.32-16.14,43.28-24.49,63.35-39.7
	c22.49-17.04,38.62-59.77,48.15-70.11c22.24-24.13,81.93-56.69,81.93-56.69c-5.03,26.99-30.1,68.96-39.24,84.95
	c-19.8,24.37-29.6,56.27-37.13,63.97c-31.23,31.99-39.39,33.84-129.66,96.53c-41.13,28.56-177.07,63.97-245.62,61.69
	c-75.39-2.51-160.51-27.42-263.32-89.11c-17.51-10.51-94.8-69.46-133.09-160.51C116.41,713.25,117.31,724.27,106.74,678.76z"/>
<path fill="#0F0F0F" d="M1064.3,610.95c-1.7,14.25-4.1,27.95-6.97,41.58c-6.14,29.17-14.73,57.62-25.76,85.31
	c-16.74,42.03-38.52,81.26-65.38,117.67c-14.47,19.62-30.22,38.14-47.24,55.59c-39.12,40.11-83.47,73.17-133.07,99.2
	c-37.68,19.78-77.21,34.68-118.53,44.81c-17.94,4.4-36.07,7.83-54.4,10.26c-17.89,2.37-35.82,4.09-53.87,4.39
	c-9.96,0.17-19.94,0.46-29.9,0.25c-14.65-0.32-29.27-1.29-43.86-2.86c-34.5-3.69-68.29-10.7-101.39-21.08
	c-45.02-14.11-87.33-34.01-127.01-59.51c-26.59-17.09-51.44-36.42-74.52-58.01c-43.75-40.93-79.64-87.89-107.51-140.95
	c-19.71-37.55-34.58-76.93-44.77-118.09c-4.58-18.51-8.01-37.24-10.65-56.12c-0.31-2.23,0.03-3.85,1.86-5.41
	c4.12-3.52,7.97-7.35,12.05-10.93c2.02-1.78,3.12-3.82,2.98-6.52c-0.05-0.88,0-1.76,0-2.64c0-28.74,0-57.48,0-86.22
	c0-0.73-0.05-1.47,0.01-2.2c0.26-3.14-0.9-5.57-3.12-7.84c-4.71-4.81-9.19-9.85-13.86-14.9c-0.35-3.2,0.54-6.36,1-9.51
	c4.09-27.88,10.28-55.29,18.76-82.19c12.7-40.31,30.03-78.52,51.93-114.65c18.84-31.08,40.66-59.91,65.47-86.45
	c41.03-43.87,88.11-79.83,141.34-107.71c43.51-22.79,89.34-39.05,137.42-49.02c12.34-2.56,24.79-4.57,37.28-6.28
	c0.44-0.06,0.87-0.1,1.31-0.14c5.26-0.45,4.33-0.93,7.95,2.94c3.9,4.18,7.92,8.24,11.78,12.46c1.5,1.64,3.13,2.38,5.37,2.36
	c9.24-0.09,18.48-0.04,27.71-0.04c19.8,0,39.59,0,59.39,0c1.03,0,2.06-0.08,3.08,0.01c1.94,0.18,3.34-0.65,4.62-2.02
	c4.11-4.39,8.28-8.71,12.42-13.07c0.3-0.32,0.62-0.63,0.88-0.98c1.08-1.5,2.53-1.78,4.28-1.5c4.2,0.67,8.42,1.19,12.61,1.86
	c25.94,4.15,51.46,10.07,76.52,18c44.98,14.23,87.3,34.08,126.92,59.69c26.3,16.99,50.92,36.15,73.78,57.53
	c39.6,37.02,72.85,79.07,99.5,126.28c23.77,42.11,41.43,86.65,52.94,133.62c4.57,18.66,8.01,37.54,10.61,56.57
	c0.27,1.94-0.17,3.35-1.58,4.7c-4.65,4.47-9.22,9.03-13.81,13.56c-0.83,0.82-1.8,1.58-2.41,2.54c-0.6,0.94-0.98,2.1-1.2,3.21
	c-0.2,0.99-0.06,2.04-0.06,3.07c0,28.01,0,56.01,0,84.02c0,0.44,0.04,0.88-0.01,1.32c-0.31,2.71,0.82,4.76,2.68,6.65
	c4.21,4.29,8.3,8.69,12.43,13.06C1061.63,608,1062.9,609.41,1064.3,610.95z M87.75,547.03c-0.69,246.6,197.22,450.69,446.66,455.51
	c125.72,0.85,234.73-41.38,325.43-128.48c92.58-88.9,137.16-205.33,138.4-319.06c1.37-125.74-41.7-234.58-128.9-325.2
	c-88.02-91.47-205.19-136.17-318.4-137.98c-131.39-2.1-245.59,51.16-325.38,128.76C136.42,307.28,87.2,425.81,87.75,547.03z"/>
<path fill="#DC0C15" stroke="#0E0E0E" stroke-miterlimit="10" d="M585.21,684.69c0-4.59-0.12-9.12,0.03-13.65
	c0.28-8.79,0.73-17.57,1.07-26.35c0.61-15.52,1.18-31.04,1.78-46.56c0.57-14.79,1.17-29.58,1.74-44.37
	c0.6-15.52,1.17-31.04,1.77-46.57c0.57-14.79,1.15-29.58,1.75-44.37c0.37-9.22,0.78-18.45,1.14-27.67c0.03-0.7-0.11-1.41-0.16-2.03
	c-1.51-1.02-3.02-0.63-4.44-0.63c-12.9-0.03-25.81-0.02-38.71-0.02c-16.72,0-33.43-0.01-50.15,0.01c-1.58,0-3.19-0.2-4.95,0.4
	c-0.17,2.4-0.07,4.71,0.02,7.02c0.57,15.08,1.16,30.16,1.72,45.25c0.69,18.6,1.36,37.2,2.06,55.79c0.57,15.23,1.17,30.46,1.76,45.69
	c0.58,15.08,1.16,30.16,1.76,45.25c0.64,16.1,1.27,32.21,2.01,48.31c0.11,2.28-0.87,3.44-2.68,4.5
	c-11.78,6.86-23.52,13.78-35.28,20.69c-3.16,1.86-6.31,3.73-9.48,5.56c-1.13,0.65-2.3,1.23-3.71,1.98c-0.38-0.97-0.85-1.7-0.95-2.49
	c-0.99-8-1.92-16.01-2.87-24.01c-1.32-11.06-2.64-22.12-3.97-33.18c-1.33-11.06-2.65-22.12-3.98-33.18
	c-1.33-11.06-2.67-22.12-4.01-33.17c-0.98-8.15-1.97-16.3-2.95-24.45c-1.36-11.35-2.71-22.7-4.07-34.05
	c-1.29-10.77-2.58-21.54-3.88-32.3c-1.37-11.35-2.75-22.7-4.11-34.05c-1.31-10.91-2.57-21.83-3.88-32.75
	c-1.33-11.06-2.7-22.11-4.03-33.17c-1.31-10.91-2.58-21.83-3.89-32.75c-1.29-10.77-2.6-21.53-3.9-32.3
	c-1.33-11.06-2.66-22.12-3.99-33.18c-1.33-11.06-2.68-22.12-4.01-33.17c-1-8.29-1.98-16.59-2.97-24.88
	c-1.34-11.2-2.7-22.41-4.04-33.61c-1.19-9.9-2.38-19.79-3.55-29.69c-0.22-1.82,0.29-2.41,2.09-2.5c1.17-0.06,2.35-0.03,3.52-0.03
	c29.33,0,58.65-0.01,87.98,0.01c1.73,0,3.51-0.28,5.39,0.51c0.18,2.02,0.46,4.04,0.52,6.06c0.24,7.62,0.38,15.24,0.62,22.85
	c0.35,11.13,0.78,22.26,1.13,33.39c0.25,7.76,0.38,15.53,0.63,23.29c0.42,13.18,0.92,26.36,1.35,39.54
	c0.18,5.42,0.23,10.84,0.41,16.26c0.44,13.62,0.94,27.24,1.39,40.86c0.12,3.52,0.12,7.04,0.22,10.55c0.04,1.59,0.17,3.18,0.28,5.02
	c1.01,0.16,1.82,0.36,2.65,0.41c1.02,0.07,2.05,0.02,3.08,0.02c29.47,0,58.95,0,88.42,0c1.74,0,3.48-0.05,5.41-0.09
	c0.21-1.19,0.5-2.16,0.53-3.14c0.34-10.25,0.62-20.51,0.95-30.76c0.35-10.98,0.73-21.97,1.07-32.95c0.24-7.76,0.43-15.53,0.69-23.29
	c0.45-13.47,0.95-26.94,1.39-40.42c0.18-5.42,0.2-10.85,0.38-16.27c0.44-13.33,0.92-26.65,1.38-39.98c0.11-3.06,0.18-6.13,0.28-9.37
	c1.22-0.2,2.2-0.4,3.18-0.5c0.73-0.07,1.46-0.02,2.2-0.02c30.06,0,60.12-0.01,90.18,0.02c1.57,0,3.22-0.42,4.74,0.57
	c0.09,0.42,0.3,0.86,0.25,1.26c-21.35,178.12-42.72,356.23-64.11,534.34c-0.1,0.85-0.41,1.68-0.68,2.73
	c-0.82-0.32-1.51-0.52-2.13-0.85C624.86,708.88,587.74,686.75,585.21,684.69z"/>
<polygon fill="#90C6EC" points="207.82,1056.62 216.27,1235.97 226.12,1331.42 240.48,1269.48 "/>
<polygon fill="#90C6EC" points="521.76,1134.89 502.33,1281.58 486,1391.67 500.36,1245.54 518.94,1125.32 "/>
<polygon fill="#90C6EC" points="557.8,1094.35 592.99,1227.24 605.94,1301.86 594.68,1173.46 560.61,1086.18 "/>
<polygon fill="#90C6EC" points="657.19,1063.09 632.41,1218.23 633.26,1107.3 647.9,1059.62 "/>
<polygon fill="#90C6EC" points="732.08,1078.58 712.09,1152.35 699.42,1224.71 680.84,1368.02 671.55,1159.1 730.11,1070.41 "/>
<path fill="#FFFFFF" d="M114.41,700.19c9.21,13.17,31.07,30.31,46.84,50.84c15.7,20.44,29.23,34.41,53.12,60.55
	c25.91,28.35,52.57,52.23,70.26,64.55c16.64,11.58,38.51,24.29,76.54,40.56c30.77,13.16,45.58,13.46,62.83,17.71
	c8.95,2.2,22.49,16.33,80.54,21.13c42.53,3.52,58.08-1.01,67.97-1.14c38.03-0.52,63.72-15.57,82.25-19.42
	c8.99-1.87,23.14-14.2,58.26-26.85c29.82-10.74,45.88-21.24,65.12-30.84c32.32-16.14,48.47-24.21,68.54-39.41
	c22.49-17.04,38.46-62.78,47.98-73.11c22.24-24.13,76.54-62.26,76.54-62.26c-5.03,26.99-23.99,67.4-33.13,83.4
	c-19.8,24.37-29.6,56.27-37.13,63.97c-31.23,31.99-39.39,33.84-129.66,96.53c-41.13,28.56-177.07,63.97-245.62,61.69
	c-75.39-2.51-160.51-27.42-263.32-89.11c-17.51-10.51-94.8-69.46-133.09-160.51C116.41,727.89,124.97,745.69,114.41,700.19z"/>
<polygon fill="#90C6EC" points="463.47,1090.69 443.77,1253.15 441.51,1198.8 456.15,1088.43 "/>
<path fill="#DC0C15" stroke="#0E0E0E" stroke-miterlimit="10" d="M711.08,331.55c1.73-0.72,3.1-0.06,4.49,0.27
	c21.81,5.16,43.62,10.33,65.43,15.51c34.21,8.13,68.41,16.29,102.62,24.43c18.96,4.51,37.92,8.98,56.88,13.49
	c1.27,0.3,2.51,0.72,4.05,1.17c0.07,1.14,0.26,2.28,0.18,3.39c-0.61,8.62-1.28,17.25-1.93,25.87c-0.78,10.38-1.55,20.75-2.32,31.13
	c-0.25,3.34-0.4,6.68-1.13,10.19c-1.03-0.09-1.88-0.06-2.68-0.24c-29.87-6.72-59.74-13.46-89.61-20.21
	c-4.14-0.94-8.29-1.88-12.43-2.83c-0.14-0.03-0.28-0.07-0.43-0.1c-5.53-1.09-7.42,0.05-8.89,5.63
	c-7.66,29.04-15.29,58.09-22.94,87.13c-14.86,56.38-29.73,112.76-44.59,169.14c-1.16,4.39-2.33,8.78-3.44,13.18
	c-0.32,1.27-0.61,2.58-0.69,3.89c-0.14,2.19,0.75,3.32,2.84,3.75c0.85,0.17,1.74,0.2,2.62,0.23c13.91,0.5,27.83,0.96,41.74,1.47
	c15.52,0.57,31.04,1.17,46.56,1.75c15.52,0.59,31.04,1.18,46.56,1.76c6,0.22,12.01,0.4,18.01,0.65c1.44,0.06,2.87,0.31,4.09,0.45
	c0.24,0.45,0.31,0.58,0.37,0.71c0.06,0.13,0.15,0.27,0.15,0.41c-0.01,0.88,0,1.76-0.07,2.64c-1.5,17.52-3.02,35.04-4.54,52.56
	c-0.02,0.27-0.24,0.53-0.49,1.06c-0.77,0.23-1.7,0.66-2.68,0.79c-14.38,1.89-28.78,3.7-43.16,5.59
	c-16.71,2.19-33.41,4.46-50.12,6.66c-12.35,1.62-24.71,3.16-37.06,4.78c-14.38,1.89-28.76,3.85-43.15,5.74
	c-14.53,1.91-29.07,3.76-43.6,5.66c-10.03,1.31-20.05,2.69-30.07,4.01c-1.86,0.24-3.73,0.65-5.9,0.21
	c-0.07-0.72-0.25-1.42-0.17-2.08c0.93-8.3,1.91-16.6,2.87-24.9c1.03-8.88,2.06-17.76,3.09-26.64c1.08-9.32,2.18-18.63,3.24-27.95
	c1.02-8.88,2-17.77,3.01-26.65c0.98-8.59,1.97-17.18,2.96-25.77c1.03-8.88,2.07-17.76,3.1-26.64c1.38-11.94,2.77-23.88,4.14-35.81
	c1.27-11.07,2.52-22.14,3.79-33.2c1.36-11.79,2.75-23.58,4.11-35.38c0.99-8.59,1.95-17.18,2.94-25.78
	c1.35-11.79,2.72-23.59,4.08-35.38c0.99-8.59,1.96-17.18,2.95-25.77c1.36-11.79,2.75-23.58,4.11-35.38c1.02-8.88,2-17.77,3.01-26.65
	c1.26-11.07,2.53-22.13,3.81-33.2c1.07-9.32,2.17-18.63,3.22-27.95C710.28,336,710.53,333.7,711.08,331.55z"/>
<polygon fill="#90C6EC" points="142.78,1004.81 146.72,1147.28 154.39,1225.12 165.3,1016.82 "/>
<path fill="#DC0C15" stroke="#0E0E0E" stroke-miterlimit="10" d="M438.92,811.71c-1.57,0-2.74,0.13-3.88-0.02
	c-83.87-10.68-167.74-21.39-251.6-32.11c-0.26-0.03-0.48-0.31-1.07-0.71c-2.27-19.32-4.22-38.96-6.42-58.79
	c1.3-0.28,2.25-0.63,3.22-0.67c10.1-0.39,20.21-0.7,30.31-1.09c11.13-0.43,22.25-0.95,33.37-1.36c12.45-0.46,24.9-0.83,37.34-1.28
	c10.54-0.39,21.08-0.85,31.62-1.26c7.03-0.28,14.05-0.52,21.08-0.81c1.17-0.05,2.34-0.15,3.48-0.36c1.3-0.25,2.15-1.19,2.16-2.44
	c0.01-1.73-0.11-3.52-0.52-5.19c-2.44-9.81-4.97-19.59-7.5-29.38c-8.37-32.33-16.77-64.66-25.14-96.99
	c-7.2-27.79-14.38-55.59-21.57-83.39c-4.88-18.86-9.77-37.72-14.66-56.58c-0.22-0.85-0.48-1.69-0.68-2.55
	c-1.08-4.72-4.03-5.82-7.71-4.84c-3.68,0.99-7.42,1.72-11.13,2.57c-29.84,6.85-59.68,13.7-89.52,20.54c-1.55,0.35-3.11,0.64-4.9,1
	c-1.57-6.15-1.28-12.19-1.97-18.1c-0.69-5.96-0.94-11.98-1.42-17.97c-0.46-5.84-0.99-11.68-1.45-17.52
	c-0.47-5.95-1.19-11.89-1.24-17.92c1.42-0.44,2.51-0.86,3.63-1.12c75.68-17.96,151.36-35.91,227.05-53.83
	c0.39-0.09,0.85,0.1,1.41,0.18c0.95,2.79,1.01,5.73,1.37,8.6c1.43,11.49,2.78,22.99,4.15,34.48c1.27,10.62,2.53,21.24,3.81,31.86
	c1.36,11.35,2.74,22.7,4.1,34.04c1.31,10.91,2.59,21.83,3.89,32.74c1.29,10.77,2.59,21.53,3.88,32.3
	c1.06,8.88,2.11,17.75,3.17,26.63c1.27,10.62,2.55,21.24,3.83,31.86c1.32,10.91,2.65,21.82,3.98,32.73
	c1.39,11.49,2.79,22.98,4.16,34.48c1.3,10.91,2.56,21.83,3.86,32.74c1.28,10.77,2.59,21.53,3.89,32.3
	c1.32,10.91,2.64,21.82,3.96,32.73c1.37,11.35,2.75,22.69,4.11,34.04c1.29,10.77,2.56,21.54,3.85,32.3
	c0.47,3.93,0.99,7.85,1.44,11.78C438.87,807.35,439.29,809.36,438.92,811.71z"/>
<polygon fill="#90C6EC" points="90.42,905.25 112.18,1136.39 134.33,959.2 "/>
<g>
	<path fill="#B7E0F2" d="M461.82,1092.95l-1-0.02l-17.26,151.7l-10.24-158.12l-10.39,75.15l-9.14,58.82l-15.42,78.81l-17.72,69.77
		l-11-57.2l-6.85-61.65l-3.42-113.06l-4.96-54.78l-19.8-36.04l-33.97,225.54l-15.52-114.21l-9.15-37.75l-6.08-93.4l-1-0.03
		l-15.61,133.47l-12.57,110.81l-13,53.05l-8.86-91.89l-5.71-130.21l-5.72-38.32l-12.21-52.43l-20.76,91.8l-19.92,118.39l-6.51-74.92
		l-3.43-129.06l-9.68-42.4l-6.16,32.04l-15.45,114.79l-12.12-110.18L90.91,905.2l0-88.09c9.41,16.4,44.39,66.84,78.93,100.12
		c43.8,42.2,115.32,101.99,230.22,133.97c47.05,13.1,94.72,19.74,141.68,19.74c60.63,0,122.16-11,182.88-32.69
		c65.74-23.49,126.72-61.7,181.25-113.59c41.3-39.3,64.81-73.75,70.18-81.97l-12.46,101.18l-7.5,127.64l-20.37-104.13l-14.13,98.89
		l-18.94,142.59l-13.2-94.61l-13.71-68.57l-5.7-59.93l-1,0.03l-5.41,188.3l-4.44-66.65h-1l-10.28,154.22l-7.98,54.27l-9.87-95.42
		l-34.54-138.05l-12.12,35.41l-8.02,50.06l-15.51,106.38l-29.54-191.99l-20.05,68.42l-12.58,70.88l-14.29,126.43l-18.99-218.92l-1,0
		l-2.91,32.98l-7.49-91.52l-20.74,136.93l-7.59-73.77l-1,0.04l-3.43,151.94l-5.16,83.48l-5.28-26.44l-14.85-117.63l-31.72-122.42
		l-14.08,90.93l-11.36,80.59l-4.78-61.13l-13.11-76.27l-21.02,145.36l-14.25,127.14L461.82,1092.95z"/>
	<path fill="#90C6EC" d="M91.42,818.95c10.63,17.89,44.57,66.34,78.08,98.63c43.84,42.23,115.43,102.09,230.43,134.09
		c47.09,13.11,94.81,19.75,141.81,19.75c60.69,0,122.27-11.01,183.04-32.72c65.8-23.51,126.84-61.76,181.42-113.7
		c38.83-36.95,61.96-69.62,69.08-80.28l-12.2,99.06l0,0.03l0,0.03l-7.26,123.67l-19.05-97.35l-1.14-5.8l-0.84,5.85l-13.71,95.97
		l-18.45,138.95l-12.69-90.97l0-0.03l-0.01-0.03l-13.7-68.49l-5.71-59.92l-2,0.07l-5.11,177.82l-3.75-56.19h-2l-10.28,154.19
		l-7.4,50.32l-9.46-91.44l-0.01-0.07l-0.02-0.07l-34.12-136.34l-0.82-3.28l-1.1,3.2l-11.58,33.81l-0.03,0.08l-0.01,0.08l-8,49.99
		l-15.03,103.07l-28.69-186.47l-0.68-4.44l-1.26,4.31l-19.42,66.26l-0.02,0.05l-0.01,0.05l-12.57,70.83l-0.01,0.03l0,0.03
		l-13.73,121.43l-18.56-213.94l-1.99,0l-2.39,27.12l-6.66-81.38l-0.7-8.56l-1.29,8.49l-19.51,128.8l-7.19-69.86l-1.99,0.08
		l-3.43,151.9l-4.92,79.66l-4.52-22.64l-14.85-117.63l-0.01-0.06l-0.02-0.06l-31.1-120.01l-1.22-4.69l-0.74,4.79l-13.71,88.55
		l-10.72,76.07l-4.43-56.58l0-0.05l-0.01-0.05l-12.57-73.11l-1.07-6.23l-0.9,6.26l-20.57,142.26l-13.64,121.73l-22.45-310.95
		l-1.99-0.04l-16.63,146.13l-9.56-147.61l-0.64-9.85l-1.35,9.77l-9.71,70.24l-9.13,58.8l-15.42,78.8l-17.17,67.6l-10.57-54.96
		l-6.85-61.61l-3.43-113.06l0-0.03l0-0.03l-4.95-54.64l-0.02-0.21l-0.1-0.18l-19.04-34.65l-1.42-2.59l-0.44,2.93l-33.23,220.63
		l-15.05-110.75l-0.01-0.05l-0.01-0.05l-9.12-37.62l-6.09-93.4l-1.99-0.05l-15.61,133.47l-12.56,110.75l-12.29,50.19l-8.57-88.93
		l-5.71-130.21l0-0.05l-0.01-0.05l-5.71-38.27l-0.01-0.04l-0.01-0.04l-11.71-50.27l-0.99-4.24l-0.96,4.25l-20.28,89.68l-0.01,0.03
		l0,0.03l-19.26,114.5l-6.17-70.97l-3.43-129.06l0-0.1l-0.02-0.1L135.95,977l-1.06-4.63l-0.9,4.67l-5.71,29.7l-0.01,0.03l0,0.03
		l-14.9,110.71l-11.67-106.1L91.42,905.2V818.95 M90.42,815.19c0,16.18,0,90.06,0,90.06l10.28,106.24l12.57,114.24l15.99-118.81
		l5.71-29.7l9.14,39.98l3.43,129.09l6.85,78.83l20.56-122.24l20.28-89.68l11.71,50.27l5.71,38.27l5.71,130.23l9.14,94.82
		l13.71-55.98L253.78,1160l15.61-133.47l6.09,93.49l9.14,37.7l15.99,117.67l34.27-227.53l19.04,34.65l4.95,54.64l3.43,113.1
		l6.85,61.69l11.42,59.41l18.28-71.97l15.42-78.83l9.14-58.83l9.71-70.26l10.28,158.79l17.9-157.27l23.23,321.78l14.85-132.52
		l20.56-142.23l12.57,73.11l5.14,65.69l12-85.11l13.71-88.54l31.1,120.01l14.85,117.67l6.03,30.21l5.4-87.33l3.43-151.94l8,77.68
		l20.69-136.58l7.62,93.11l3.43-38.84l19.42,223.91l14.85-131.38l12.57-70.83l19.42-66.26l29.7,193.07L775.86,1168l8-49.98
		l11.58-33.81l34.12,136.34l10.28,99.39l8.57-58.26l10.28-154.22l5.14,77.11l5.71-198.78l5.71,59.98l13.71,68.54l13.71,98.25
		l19.42-146.23l13.71-95.96l20.56,105.1l7.73-131.55l12.73-103.36c0,0-23.62,38.37-71.29,83.73
		c-41.94,39.91-102.21,85.3-181.07,113.48c-66.51,23.76-127.74,32.66-182.71,32.66c-53.38,0-100.85-8.39-141.54-19.72
		c-114.24-31.8-185.39-90.87-230-133.85C133.83,881.83,97.84,828.9,90.42,815.19L90.42,815.19z"/>
</g>
<path fill="#FFFFFF" d="M90.42,815.19c9.21,13.17,44.78,21.55,60.55,42.08c15.7,20.44,32.66,42.4,56.55,68.54
	c25.91,28.35,38.86,42.52,56.55,54.84c16.64,11.58,35.65,19.72,73.68,35.99c30.77,13.16,46.15,19.74,63.4,23.99
	c8.95,2.2,17.34,3.77,75.4,8.57c42.53,3.52,63.79,5.28,73.68,5.14c38.03-0.52,67.15-6.43,85.68-10.28
	c8.99-1.87,36.85-7.92,71.97-20.56c29.82-10.74,51.02-21.24,70.26-30.84c32.32-16.14,48.47-24.21,68.54-39.41
	c22.49-17.04,38.46-34.22,47.98-44.55c22.24-24.13,82.15-68.12,82.15-68.12c-5.03,26.99-5.6,26.99-14.74,42.98
	c-19.8,24.37-40.08,45.6-47.6,53.31c-31.23,31.99-63.02,56.55-164.32,99.2c-32.66,13.75-158.22,42.27-226.77,39.98
	c-75.39-2.51-142.8-18.28-249.04-65.69c-18.65-8.32-102.23-28.91-140.52-119.95C120.98,859.84,100.98,860.7,90.42,815.19z"/>
<polygon fill="#FFFFFF" points="114.43,1004.81 127.2,936.48 135.46,918.46 154.23,898.19 91.82,817.57 102.44,919.98 "/>
<polygon fill="#FFFFFF" points="164.44,1091.38 177.96,1009.13 198.9,969.52 183.51,958.63 145.22,909.45 137.26,965.42 
	149.82,1017.59 157.14,1066.47 "/>
<polygon fill="#FFFFFF" points="195.15,968.02 219.64,1054.65 228.94,1098.57 229.78,1161.92 233.16,1209.22 229.03,1302.81 
	235.12,1268.53 262.92,1025.58 269.1,1004.43 "/>
<polygon fill="#FFFFFF" points="270.61,1003.31 290.6,1085.9 299.89,1143.34 303.27,1210.91 333.68,1031.84 "/>
<polygon fill="#FFFFFF" points="332.92,1032.97 431.28,1063 401.81,1195.14 377.04,1302.14 368.31,1104.48 360.02,1081.56 "/>
<polygon fill="#FFFFFF" points="433.91,1061.12 449.11,1155.73 457.98,1089.46 471.08,1070.51 "/>
<polygon fill="#FFFFFF" points="465.51,1093.75 487.22,1273.61 501.49,1162.11 517.63,1103.54 528.51,1149.34 540.15,1185.76 
	565.31,1069.76 446.3,1060.75 "/>
<polygon fill="#FFFFFF" points="559.09,1069.76 647.9,1059.62 634.76,1135.83 625.83,1098.65 619.74,1099.41 606.51,1174.59 
	611.57,1264.13 588.77,1160.23 "/>
<polygon fill="#FFFFFF" points="655.22,1055.49 660.85,1112.37 662.54,1081.96 681.68,1216.82 699.42,1130.67 734.05,1052.11 
	728.42,1034.09 "/>
<polygon fill="#FFFFFF" points="721.1,1039.72 730.11,1050.99 745.88,1139.4 757.14,1185.57 773.47,1110.68 788.11,1043.1 
	782.48,1011 "/>
<polygon fill="#FFFFFF" points="783.04,1032.97 812.33,1089.84 833.73,1171.49 840.48,1216.54 856.81,1063.37 860.76,1096.04 
	864.7,967.64 775.72,1013.26 "/>
<polyline fill="#FFFFFF" points="840.48,1216.54 856.81,1063.37 860.76,1096.04 "/>
<polygon fill="#FFFFFF" points="872.58,969.9 883.84,1050.99 897.92,1087.03 899.05,1114.62 933.4,928.79 949.73,982.85 
	966.06,860.65 "/>
<polygon fill="#D9DADF" points="100.54,843.76 110.68,933.11 114.06,871.91 "/>
<polygon fill="#D9DADF" points="146.72,916.21 141.46,965.77 156.48,1029.21 "/>
<polygon fill="#D9DADF" points="199.28,967.64 228.56,1078.77 216.55,986.04 "/>
<polygon fill="#D9DADF" points="271.54,998.8 294.26,1084.21 301.01,1126.44 296.13,1016.82 "/>
<polygon fill="#D9DADF" points="336.3,1034.09 362.96,1081.02 371.22,1103.54 374.97,1167.74 376.85,1102.79 366.71,1059.62 
	348.32,1037.47 "/>
<polygon fill="#D9DADF" points="436.16,1065.25 445.92,1126.44 444.05,1066 "/>
<polygon fill="#D9DADF" points="643.39,1062.25 637.2,1108.99 633.26,1063.94 "/>
<polygon fill="#D9DADF" points="726.73,1057.74 692.38,1128.13 686.19,1150.09 701.39,1055.49 730.67,1039.72 "/>
<polygon fill="#D9DADF" points="786.99,1024.52 762.21,1150.66 767.84,1083.08 765.02,1029.02 790.37,1012.69 "/>
<polygon fill="#D9DADF" points="856.81,980.6 834.85,992.42 845.55,1061.12 846.11,1145.03 856.25,1071.26 "/>
<polygon fill="#D9DADF" points="908.06,1042.54 899.61,1016.64 896.23,955.26 931.15,915.84 "/>
<polygon fill="#D9DADF" points="962.68,866.28 953.67,931.6 950.29,887.12 "/>
<polygon fill="#D9DADF" points="264.41,1005.94 251.46,998.05 248.64,1020.58 245.83,1143.9 "/>
<polygon fill="#D9DADF" points="138.27,909.08 131.52,916.96 125.88,934.42 128.7,909.64 131.52,898.94 "/>
<polygon fill="#D9DADF" points="194.02,965.39 177.13,1005.94 172.62,1022.27 174.12,996.55 186.14,959.01 "/>
<polygon fill="#D9DADF" points="330.67,1032.97 311.9,1153.85 324.67,1029.96 "/>
<polygon fill="#D9DADF" points="431.28,1055.12 406.51,1167.74 426.4,1053.99 "/>
<polygon fill="#D9DADF" points="462.07,1081.39 467.7,1092.28 476.33,1174.5 472.2,1081.77 "/>
<polygon fill="#D9DADF" points="521.76,1085.15 499.98,1161.73 491.35,1232.31 496.98,1160.23 508.99,1090.03 "/>
<polygon fill="#D9DADF" points="517.25,1099.04 527.39,1138.08 521.76,1085.15 "/>
<polygon fill="#D9DADF" points="561.18,1081.77 545.41,1156.85 554.42,1096.79 "/>
<polygon fill="#D9DADF" points="563.8,1080.27 588.58,1156.48 571.69,1093.41 "/>
<polygon fill="#D9DADF" points="619.36,1084.4 606.23,1169.99 613.73,1099.41 "/>
<polygon fill="#D9DADF" points="656.34,1060.18 659.91,1094.91 661.97,1074.45 667.04,1110.49 663.1,1069.01 "/>
<polygon fill="#D9DADF" points="732.18,1053.24 741.19,1108.99 737.24,1037.1 732.18,1039.35 "/>
<polygon fill="#D9DADF" points="786.8,1026.4 812.7,1088.9 790.37,1012.69 "/>
</svg>
